<svg width="440" height="60" viewBox="0 0 440 60" fill="none" xmlns="http://www.w3.org/2000/svg">
<path d="M5.86914 3.78125H8.90625L14.502 18H0.195312L5.86914 3.78125ZM4.16992 15.6465H10.5469L7.37305 7.16992L4.16992 15.6465ZM18.8086 7.43359L18.7988 14.6992C18.7988 15.0898 18.8737 15.3698 19.0234 15.5391C19.1797 15.7083 19.4694 15.793 19.8926 15.793C20.179 15.793 20.4525 15.7669 20.7129 15.7148V17.8535C20.2051 18.0228 19.6354 18.1074 19.0039 18.1074C17.0182 18.1074 16.0091 17.1016 15.9766 15.0898V7.43359H18.8086ZM31.2793 7.43359V14.7285C31.2988 15.4967 31.5299 15.8809 31.9727 15.8809C32.0638 15.8809 32.1354 15.8678 32.1875 15.8418L32.4219 17.9609C32.0964 18.1237 31.6895 18.2051 31.2012 18.2051C30.0228 18.2051 29.2122 17.6615 28.7695 16.5742C28.1315 17.6549 27.2233 18.1953 26.0449 18.1953C24.8405 18.1953 23.8704 17.7689 23.1348 16.916C22.3991 16.0566 21.9987 14.8815 21.9336 13.3906L21.9238 12.7949C21.9238 11.0827 22.2949 9.72852 23.0371 8.73242C23.7793 7.73633 24.7884 7.23828 26.0645 7.23828C27.1387 7.23828 27.9915 7.72656 28.623 8.70312L28.8281 7.43359H31.2793ZM24.7559 13C24.7559 14.9531 25.4232 15.9297 26.7578 15.9297C27.5326 15.9297 28.099 15.6172 28.457 14.9922V10.5488C28.099 9.86523 27.5391 9.52344 26.7773 9.52344C26.1328 9.52344 25.6348 9.80339 25.2832 10.3633C24.9316 10.9232 24.7559 11.8021 24.7559 13ZM26.9336 2.36523H29.4922L27.9004 5.73438H26.2207L26.9336 2.36523ZM43.7109 9.71875H41.2305C42.3698 10.6432 42.9395 11.8118 42.9395 13.2246C42.9395 14.709 42.5 15.9102 41.6211 16.8281C40.7422 17.7396 39.5736 18.1953 38.1152 18.1953C36.6048 18.1953 35.3939 17.7103 34.4824 16.7402C33.5775 15.7702 33.125 14.4388 33.125 12.7461V12.6191C33.125 11.0632 33.571 9.8099 34.4629 8.85938C35.3613 7.90885 36.5853 7.43359 38.1348 7.43359H43.7109V9.71875ZM35.9473 12.8242C35.9473 13.8398 36.1328 14.6113 36.5039 15.1387C36.8815 15.666 37.4186 15.9297 38.1152 15.9297C38.7533 15.9297 39.2448 15.666 39.5898 15.1387C39.9414 14.6113 40.1172 13.7715 40.1172 12.6191C40.1172 11.6947 39.9414 10.9818 39.5898 10.4805C39.2383 9.97266 38.7402 9.71875 38.0957 9.71875C37.4186 9.71875 36.8913 9.96615 36.5137 10.4609C36.1361 10.9557 35.9473 11.7435 35.9473 12.8242ZM54.209 9.69922H50.7324V14.7969C50.7324 15.181 50.8008 15.4609 50.9375 15.6367C51.0742 15.8125 51.3021 15.9004 51.6211 15.9004C51.9271 15.9004 52.2461 15.8451 52.5781 15.7344L52.8711 17.8828C52.3177 18.0911 51.709 18.1953 51.0449 18.1953C50.0684 18.1953 49.3034 17.9219 48.75 17.375C48.1966 16.8216 47.9167 15.9655 47.9102 14.8066V9.69922H44.668V7.43359H54.209V9.69922ZM64.4824 7.43359V14.7285C64.502 15.4967 64.7331 15.8809 65.1758 15.8809C65.2669 15.8809 65.3385 15.8678 65.3906 15.8418L65.625 17.9609C65.2995 18.1237 64.8926 18.2051 64.4043 18.2051C63.2259 18.2051 62.4154 17.6615 61.9727 16.5742C61.3346 17.6549 60.4264 18.1953 59.248 18.1953C58.0436 18.1953 57.0736 17.7689 56.3379 16.916C55.6022 16.0566 55.2018 14.8815 55.1367 13.3906L55.127 12.7949C55.127 11.0827 55.498 9.72852 56.2402 8.73242C56.9824 7.73633 57.9915 7.23828 59.2676 7.23828C60.3418 7.23828 61.1947 7.72656 61.8262 8.70312L62.0312 7.43359H64.4824ZM57.959 13C57.959 14.9531 58.6263 15.9297 59.9609 15.9297C60.7357 15.9297 61.3021 15.6172 61.6602 14.9922V10.5488C61.3021 9.86523 60.7422 9.52344 59.9805 9.52344C59.3359 9.52344 58.8379 9.80339 58.4863 10.3633C58.1348 10.9232 57.959 11.8021 57.959 13ZM76.9141 9.71875H74.4336C75.5729 10.6432 76.1426 11.8118 76.1426 13.2246C76.1426 14.709 75.7031 15.9102 74.8242 16.8281C73.9453 17.7396 72.7767 18.1953 71.3184 18.1953C69.8079 18.1953 68.597 17.7103 67.6855 16.7402C66.7806 15.7702 66.3281 14.4388 66.3281 12.7461V12.6191C66.3281 11.0632 66.7741 9.8099 67.666 8.85938C68.5645 7.90885 69.7884 7.43359 71.3379 7.43359H76.9141V9.71875ZM69.1504 12.8242C69.1504 13.8398 69.3359 14.6113 69.707 15.1387C70.0846 15.666 70.6217 15.9297 71.3184 15.9297C71.9564 15.9297 72.4479 15.666 72.793 15.1387C73.1445 14.6113 73.3203 13.7715 73.3203 12.6191C73.3203 11.6947 73.1445 10.9818 72.793 10.4805C72.4414 9.97266 71.9434 9.71875 71.2988 9.71875C70.6217 9.71875 70.0944 9.96615 69.7168 10.4609C69.3392 10.9557 69.1504 11.7435 69.1504 12.8242ZM80.8105 7.43359L80.918 8.73242C81.6927 7.73633 82.7051 7.23828 83.9551 7.23828C86.1686 7.23828 87.3014 8.50456 87.3535 11.0371V22.0527H84.5215V11.1641C84.502 10.0703 83.9681 9.52344 82.9199 9.52344C82.0931 9.52344 81.4551 9.82617 81.0059 10.4316V18H78.1836V7.43359H80.8105ZM105.645 9.5918H103.975V14.6992C103.975 15.0833 104.046 15.3633 104.189 15.5391C104.339 15.7083 104.629 15.793 105.059 15.793C105.345 15.793 105.618 15.7669 105.879 15.7148V17.8535C105.371 18.0228 104.805 18.1074 104.18 18.1074C102.201 18.1074 101.191 17.1081 101.152 15.1094V9.5918H98.457V18H95.6348V9.5918H93.9062V7.43359H105.645V9.5918ZM106.914 12.6191C106.914 11.571 107.116 10.6367 107.52 9.81641C107.923 8.99609 108.503 8.36133 109.258 7.91211C110.02 7.46289 110.902 7.23828 111.904 7.23828C113.33 7.23828 114.492 7.67448 115.391 8.54688C116.296 9.41927 116.8 10.6042 116.904 12.1016L116.924 12.8242C116.924 14.4453 116.471 15.7474 115.566 16.7305C114.661 17.707 113.447 18.1953 111.924 18.1953C110.4 18.1953 109.183 17.707 108.271 16.7305C107.367 15.7539 106.914 14.4258 106.914 12.7461V12.6191ZM109.736 12.8242C109.736 13.8268 109.925 14.5951 110.303 15.1289C110.68 15.6562 111.221 15.9199 111.924 15.9199C112.607 15.9199 113.141 15.6595 113.525 15.1387C113.91 14.6113 114.102 13.7715 114.102 12.6191C114.102 11.6361 113.91 10.8743 113.525 10.334C113.141 9.79362 112.601 9.52344 111.904 9.52344C111.214 9.52344 110.68 9.79362 110.303 10.334C109.925 10.8678 109.736 11.6979 109.736 12.8242ZM120.371 2.90234C121.66 2.90234 122.529 3.43294 122.979 4.49414L127.1 14.8359L127.256 15.1777C127.477 15.6465 127.757 15.8841 128.096 15.8906H128.291L128.447 15.8809L128.467 18.1074C128.2 18.153 127.842 18.1758 127.393 18.1758C126.67 18.1758 126.077 18.0163 125.615 17.6973C125.16 17.3717 124.795 16.8411 124.521 16.1055L122.852 11.5254L120.693 18H117.646L121.387 7.67773L120.684 6.06641C120.553 5.74089 120.387 5.51302 120.186 5.38281C119.984 5.2526 119.73 5.1875 119.424 5.1875L118.857 5.2168L118.799 3.11719C119.255 2.97396 119.779 2.90234 120.371 2.90234ZM132.734 7.43359L132.725 14.6992C132.725 15.0898 132.799 15.3698 132.949 15.5391C133.105 15.7083 133.395 15.793 133.818 15.793C134.105 15.793 134.378 15.7669 134.639 15.7148V17.8535C134.131 18.0228 133.561 18.1074 132.93 18.1074C130.944 18.1074 129.935 17.1016 129.902 15.0898V7.43359H132.734ZM144.775 9.69922H141.299V14.7969C141.299 15.181 141.367 15.4609 141.504 15.6367C141.641 15.8125 141.868 15.9004 142.188 15.9004C142.493 15.9004 142.812 15.8451 143.145 15.7344L143.438 17.8828C142.884 18.0911 142.275 18.1953 141.611 18.1953C140.635 18.1953 139.87 17.9219 139.316 17.375C138.763 16.8216 138.483 15.9655 138.477 14.8066V9.69922H135.234V7.43359H144.775V9.69922ZM149.395 7.43359L149.385 14.6992C149.385 15.0898 149.46 15.3698 149.609 15.5391C149.766 15.7083 150.055 15.793 150.479 15.793C150.765 15.793 151.038 15.7669 151.299 15.7148V17.8535C150.791 18.0228 150.221 18.1074 149.59 18.1074C147.604 18.1074 146.595 17.1016 146.562 15.0898V7.43359H149.395ZM157.197 14.1035H156.045V18H153.223V7.43359H156.045V11.4082H156.895L159.648 7.43359H163.213L159.502 12.5215L163.379 18H159.756L157.197 14.1035ZM168.711 7.43359C167.878 9.19141 167.438 10.8711 167.393 12.4727C167.393 13.599 167.526 14.4583 167.793 15.0508C168.066 15.6367 168.444 15.9297 168.926 15.9297C169.967 15.9297 170.488 14.9889 170.488 13.1074V9.75781H173.467V13.1074C173.467 14.9889 173.988 15.9297 175.029 15.9297C175.524 15.9297 175.902 15.627 176.162 15.0215C176.429 14.4095 176.562 13.5599 176.562 12.4727C176.517 10.8581 176.074 9.17839 175.234 7.43359H177.93C178.9 8.91797 179.385 10.5977 179.385 12.4727C179.385 14.3737 179.023 15.8027 178.301 16.7598C177.578 17.7168 176.52 18.1953 175.127 18.1953C174.411 18.1953 173.783 18.0195 173.242 17.668C172.708 17.3164 172.285 16.8021 171.973 16.125C171.654 16.8021 171.227 17.3164 170.693 17.668C170.16 18.0195 169.538 18.1953 168.828 18.1953C167.428 18.1953 166.367 17.7168 165.645 16.7598C164.922 15.7962 164.561 14.3672 164.561 12.4727C164.561 10.5977 165.046 8.91797 166.016 7.43359H168.711ZM171.621 2.42383H174.18L172.588 5.79297H170.908L171.621 2.42383ZM185.215 14.5527L187.178 7.43359H190.127L186.562 18H183.867L180.303 7.43359H183.252L185.215 14.5527ZM200.42 14.6699L202.383 7.43359H205.332L201.787 17.8633V22.0723H198.965V17.7754L195.439 7.43359H198.389L200.42 14.6699ZM209.668 7.43359L209.658 14.6992C209.658 15.0898 209.733 15.3698 209.883 15.5391C210.039 15.7083 210.329 15.793 210.752 15.793C211.038 15.793 211.312 15.7669 211.572 15.7148V17.8535C211.064 18.0228 210.495 18.1074 209.863 18.1074C207.878 18.1074 206.868 17.1016 206.836 15.0898V7.43359H209.668ZM222.139 7.43359V14.7285C222.158 15.4967 222.389 15.8809 222.832 15.8809C222.923 15.8809 222.995 15.8678 223.047 15.8418L223.281 17.9609C222.956 18.1237 222.549 18.2051 222.061 18.2051C220.882 18.2051 220.072 17.6615 219.629 16.5742C218.991 17.6549 218.083 18.1953 216.904 18.1953C215.7 18.1953 214.73 17.7689 213.994 16.916C213.258 16.0566 212.858 14.8815 212.793 13.3906L212.783 12.7949C212.783 11.0827 213.154 9.72852 213.896 8.73242C214.639 7.73633 215.648 7.23828 216.924 7.23828C217.998 7.23828 218.851 7.72656 219.482 8.70312L219.688 7.43359H222.139ZM215.615 13C215.615 14.9531 216.283 15.9297 217.617 15.9297C218.392 15.9297 218.958 15.6172 219.316 14.9922V10.5488C218.958 9.86523 218.398 9.52344 217.637 9.52344C216.992 9.52344 216.494 9.80339 216.143 10.3633C215.791 10.9232 215.615 11.8021 215.615 13ZM238.291 9.69922H234.814V14.7969C234.814 15.181 234.883 15.4609 235.02 15.6367C235.156 15.8125 235.384 15.9004 235.703 15.9004C236.009 15.9004 236.328 15.8451 236.66 15.7344L236.953 17.8828C236.4 18.0911 235.791 18.1953 235.127 18.1953C234.15 18.1953 233.385 17.9219 232.832 17.375C232.279 16.8216 231.999 15.9655 231.992 14.8066V9.69922H228.75V7.43359H238.291V9.69922ZM242.91 7.43359L242.9 14.6992C242.9 15.0898 242.975 15.3698 243.125 15.5391C243.281 15.7083 243.571 15.793 243.994 15.793C244.281 15.793 244.554 15.7669 244.814 15.7148V17.8535C244.307 18.0228 243.737 18.1074 243.105 18.1074C241.12 18.1074 240.111 17.1016 240.078 15.0898V7.43359H242.91ZM250.811 7.23828C252.132 7.23828 253.184 7.61263 253.965 8.36133C254.746 9.11003 255.137 10.1126 255.137 11.3691H252.48C252.48 10.8092 252.331 10.3633 252.031 10.0312C251.738 9.69271 251.331 9.52344 250.811 9.52344C250.16 9.52344 249.655 9.77734 249.297 10.2852C248.945 10.793 248.766 11.5514 248.76 12.5605V12.8633C248.76 13.6706 248.945 14.2956 249.316 14.7383C249.688 15.1745 250.319 15.5195 251.211 15.7734C252.109 16.0208 252.738 16.2454 253.096 16.4473C253.454 16.6426 253.724 16.89 253.906 17.1895C254.095 17.4889 254.196 17.8698 254.209 18.332C254.209 18.8464 253.984 19.4258 253.535 20.0703C253.092 20.7148 252.578 21.2422 251.992 21.6523L250.518 20.5391C251.13 19.901 251.429 19.3542 251.416 18.8984C251.416 18.4297 251.071 18.1172 250.381 17.9609C248.838 17.5573 247.715 16.9583 247.012 16.1641C246.309 15.3698 245.947 14.3118 245.928 12.9902V12.5898C245.928 11.5417 246.123 10.6107 246.514 9.79688C246.911 8.97656 247.477 8.34505 248.213 7.90234C248.955 7.45964 249.821 7.23828 250.811 7.23828ZM270.654 7.43359V14.7285C270.674 15.4967 270.905 15.8809 271.348 15.8809C271.439 15.8809 271.51 15.8678 271.562 15.8418L271.797 17.9609C271.471 18.1237 271.064 18.2051 270.576 18.2051C269.398 18.2051 268.587 17.6615 268.145 16.5742C267.507 17.6549 266.598 18.1953 265.42 18.1953C264.215 18.1953 263.245 17.7689 262.51 16.916C261.774 16.0566 261.374 14.8815 261.309 13.3906L261.299 12.7949C261.299 11.0827 261.67 9.72852 262.412 8.73242C263.154 7.73633 264.163 7.23828 265.439 7.23828C266.514 7.23828 267.367 7.72656 267.998 8.70312L268.203 7.43359H270.654ZM264.131 13C264.131 14.9531 264.798 15.9297 266.133 15.9297C266.908 15.9297 267.474 15.6172 267.832 14.9922V10.5488C267.474 9.86523 266.914 9.52344 266.152 9.52344C265.508 9.52344 265.01 9.80339 264.658 10.3633C264.307 10.9232 264.131 11.8021 264.131 13ZM284.102 9.5918H282.432V14.6992C282.432 15.0833 282.503 15.3633 282.646 15.5391C282.796 15.7083 283.086 15.793 283.516 15.793C283.802 15.793 284.076 15.7669 284.336 15.7148V17.8535C283.828 18.0228 283.262 18.1074 282.637 18.1074C280.658 18.1074 279.648 17.1081 279.609 15.1094V9.5918H276.914V18H274.092V9.5918H272.363V7.43359H284.102V9.5918ZM294.795 7.43359V14.7285C294.814 15.4967 295.046 15.8809 295.488 15.8809C295.579 15.8809 295.651 15.8678 295.703 15.8418L295.938 17.9609C295.612 18.1237 295.205 18.2051 294.717 18.2051C293.538 18.2051 292.728 17.6615 292.285 16.5742C291.647 17.6549 290.739 18.1953 289.561 18.1953C288.356 18.1953 287.386 17.7689 286.65 16.916C285.915 16.0566 285.514 14.8815 285.449 13.3906L285.439 12.7949C285.439 11.0827 285.811 9.72852 286.553 8.73242C287.295 7.73633 288.304 7.23828 289.58 7.23828C290.654 7.23828 291.507 7.72656 292.139 8.70312L292.344 7.43359H294.795ZM288.271 13C288.271 14.9531 288.939 15.9297 290.273 15.9297C291.048 15.9297 291.615 15.6172 291.973 14.9922V10.5488C291.615 9.86523 291.055 9.52344 290.293 9.52344C289.648 9.52344 289.15 9.80339 288.799 10.3633C288.447 10.9232 288.271 11.8021 288.271 13ZM301.143 14.6699L303.105 7.43359H306.055L302.51 17.8633V22.0723H299.688V17.7754L296.162 7.43359H299.111L301.143 14.6699ZM306.699 12.6191C306.699 11.571 306.901 10.6367 307.305 9.81641C307.708 8.99609 308.288 8.36133 309.043 7.91211C309.805 7.46289 310.687 7.23828 311.689 7.23828C313.115 7.23828 314.277 7.67448 315.176 8.54688C316.081 9.41927 316.585 10.6042 316.689 12.1016L316.709 12.8242C316.709 14.4453 316.257 15.7474 315.352 16.7305C314.447 17.707 313.232 18.1953 311.709 18.1953C310.186 18.1953 308.968 17.707 308.057 16.7305C307.152 15.7539 306.699 14.4258 306.699 12.7461V12.6191ZM309.521 12.8242C309.521 13.8268 309.71 14.5951 310.088 15.1289C310.465 15.6562 311.006 15.9199 311.709 15.9199C312.393 15.9199 312.926 15.6595 313.311 15.1387C313.695 14.6113 313.887 13.7715 313.887 12.6191C313.887 11.6361 313.695 10.8743 313.311 10.334C312.926 9.79362 312.386 9.52344 311.689 9.52344C310.999 9.52344 310.465 9.79362 310.088 10.334C309.71 10.8678 309.521 11.6979 309.521 12.8242ZM323.281 7.23828C324.74 7.23828 325.885 7.73633 326.719 8.73242C327.552 9.72852 327.969 11.1087 327.969 12.873V13C327.969 14.6146 327.598 15.8841 326.855 16.8086C326.12 17.7331 325.127 18.1953 323.877 18.1953C322.816 18.1953 321.953 17.8014 321.289 17.0137V22.0625H318.467V12.4531C318.467 10.8646 318.906 9.59831 319.785 8.6543C320.664 7.71029 321.829 7.23828 323.281 7.23828ZM321.289 15.0312C321.654 15.6302 322.269 15.9297 323.135 15.9297C323.786 15.9297 324.284 15.6855 324.629 15.1973C324.974 14.7025 325.146 13.9017 325.146 12.7949C325.146 11.7402 324.971 10.9329 324.619 10.373C324.274 9.80664 323.783 9.52344 323.145 9.52344C322.565 9.52344 322.109 9.79362 321.777 10.334C321.452 10.8678 321.289 11.6491 321.289 12.6777V15.0312ZM329.58 15.0117C329.58 13.8138 330.244 12.9967 331.572 12.5605C331.006 12.3262 330.563 12.0137 330.244 11.623C329.925 11.2259 329.766 10.793 329.766 10.3242C329.766 9.36719 330.186 8.61523 331.025 8.06836C331.872 7.52148 333.024 7.24805 334.482 7.24805C335.791 7.24805 336.862 7.55078 337.695 8.15625C338.529 8.76172 338.945 9.53646 338.945 10.4805H336.123C336.123 10.1484 335.957 9.88151 335.625 9.67969C335.299 9.47786 334.87 9.37695 334.336 9.37695C333.809 9.37695 333.385 9.48438 333.066 9.69922C332.747 9.91406 332.588 10.1973 332.588 10.5488C332.588 10.8874 332.734 11.1576 333.027 11.3594C333.32 11.5612 333.76 11.6621 334.346 11.6621H336.172V13.5469H334.307C333.031 13.5534 332.393 13.9733 332.393 14.8066C332.393 15.1647 332.568 15.4674 332.92 15.7148C333.278 15.9557 333.747 16.0762 334.326 16.0762C334.925 16.0762 335.4 15.9622 335.752 15.7344C336.11 15.5065 336.289 15.2201 336.289 14.875H339.111C339.111 15.8776 338.678 16.6816 337.812 17.2871C336.947 17.8926 335.837 18.1953 334.482 18.1953C333.031 18.1953 331.849 17.9056 330.938 17.3262C330.033 16.7402 329.58 15.9688 329.58 15.0117ZM343.721 7.43359V13.8984C343.721 15.2526 344.131 15.9297 344.951 15.9297C345.576 15.9297 346.094 15.5977 346.504 14.9336C346.921 14.263 347.129 13.4427 347.129 12.4727C347.103 10.9362 346.771 9.25651 346.133 7.43359H348.828C349.57 8.91797 349.941 10.5977 349.941 12.4727C349.941 14.2565 349.518 15.6595 348.672 16.6816C347.826 17.6973 346.618 18.2051 345.049 18.2051C343.695 18.2051 342.666 17.8438 341.963 17.1211C341.26 16.3919 340.902 15.3535 340.889 14.0059V7.43359H343.721ZM344.971 2.41406H347.529L345.938 5.7832H344.258L344.971 2.41406ZM361.934 9.71875H359.453C360.592 10.6432 361.162 11.8118 361.162 13.2246C361.162 14.709 360.723 15.9102 359.844 16.8281C358.965 17.7396 357.796 18.1953 356.338 18.1953C354.827 18.1953 353.617 17.7103 352.705 16.7402C351.8 15.7702 351.348 14.4388 351.348 12.7461V12.6191C351.348 11.0632 351.794 9.8099 352.686 8.85938C353.584 7.90885 354.808 7.43359 356.357 7.43359H361.934V9.71875ZM354.17 12.8242C354.17 13.8398 354.355 14.6113 354.727 15.1387C355.104 15.666 355.641 15.9297 356.338 15.9297C356.976 15.9297 357.467 15.666 357.812 15.1387C358.164 14.6113 358.34 13.7715 358.34 12.6191C358.34 11.6947 358.164 10.9818 357.812 10.4805C357.461 9.97266 356.963 9.71875 356.318 9.71875C355.641 9.71875 355.114 9.96615 354.736 10.4609C354.359 10.9557 354.17 11.7435 354.17 12.8242ZM363.076 15.0117C363.076 13.8138 363.74 12.9967 365.068 12.5605C364.502 12.3262 364.059 12.0137 363.74 11.623C363.421 11.2259 363.262 10.793 363.262 10.3242C363.262 9.36719 363.682 8.61523 364.521 8.06836C365.368 7.52148 366.52 7.24805 367.979 7.24805C369.287 7.24805 370.358 7.55078 371.191 8.15625C372.025 8.76172 372.441 9.53646 372.441 10.4805H369.619C369.619 10.1484 369.453 9.88151 369.121 9.67969C368.796 9.47786 368.366 9.37695 367.832 9.37695C367.305 9.37695 366.882 9.48438 366.562 9.69922C366.243 9.91406 366.084 10.1973 366.084 10.5488C366.084 10.8874 366.23 11.1576 366.523 11.3594C366.816 11.5612 367.256 11.6621 367.842 11.6621H369.668V13.5469H367.803C366.527 13.5534 365.889 13.9733 365.889 14.8066C365.889 15.1647 366.064 15.4674 366.416 15.7148C366.774 15.9557 367.243 16.0762 367.822 16.0762C368.421 16.0762 368.896 15.9622 369.248 15.7344C369.606 15.5065 369.785 15.2201 369.785 14.875H372.607C372.607 15.8776 372.174 16.6816 371.309 17.2871C370.443 17.8926 369.333 18.1953 367.979 18.1953C366.527 18.1953 365.345 17.9056 364.434 17.3262C363.529 16.7402 363.076 15.9688 363.076 15.0117ZM377.461 7.43359L377.451 14.6992C377.451 15.0898 377.526 15.3698 377.676 15.5391C377.832 15.7083 378.122 15.793 378.545 15.793C378.831 15.793 379.105 15.7669 379.365 15.7148V17.8535C378.857 18.0228 378.288 18.1074 377.656 18.1074C375.671 18.1074 374.661 17.1016 374.629 15.0898V7.43359H377.461ZM385.361 7.23828C386.683 7.23828 387.734 7.61263 388.516 8.36133C389.297 9.11003 389.688 10.1126 389.688 11.3691H387.031C387.031 10.8092 386.882 10.3633 386.582 10.0312C386.289 9.69271 385.882 9.52344 385.361 9.52344C384.71 9.52344 384.206 9.77734 383.848 10.2852C383.496 10.793 383.317 11.5514 383.311 12.5605V12.8633C383.311 13.6706 383.496 14.2956 383.867 14.7383C384.238 15.1745 384.87 15.5195 385.762 15.7734C386.66 16.0208 387.288 16.2454 387.646 16.4473C388.005 16.6426 388.275 16.89 388.457 17.1895C388.646 17.4889 388.747 17.8698 388.76 18.332C388.76 18.8464 388.535 19.4258 388.086 20.0703C387.643 20.7148 387.129 21.2422 386.543 21.6523L385.068 20.5391C385.68 19.901 385.98 19.3542 385.967 18.8984C385.967 18.4297 385.622 18.1172 384.932 17.9609C383.389 17.5573 382.266 16.9583 381.562 16.1641C380.859 15.3698 380.498 14.3118 380.479 12.9902V12.5898C380.479 11.5417 380.674 10.6107 381.064 9.79688C381.462 8.97656 382.028 8.34505 382.764 7.90234C383.506 7.45964 384.372 7.23828 385.361 7.23828Z" fill="black"/>
<path d="M33.6953 56H32.2422V46.3672L29.3281 47.4375V46.125L33.4688 44.5703H33.6953V56ZM42.6797 56H41.2266V46.3672L38.3125 47.4375V46.125L42.4531 44.5703H42.6797V56ZM57.5312 50.9766H52.7578V56H51.2578V44.625H58.3047V45.8594H52.7578V49.75H57.5312V50.9766ZM63.2109 56.1562C62.0651 56.1562 61.1328 55.7812 60.4141 55.0312C59.6953 54.276 59.3359 53.2682 59.3359 52.0078V51.7422C59.3359 50.9036 59.4948 50.1562 59.8125 49.5C60.1354 48.8385 60.5833 48.3229 61.1562 47.9531C61.7344 47.5781 62.3594 47.3906 63.0312 47.3906C64.1302 47.3906 64.9844 47.7526 65.5938 48.4766C66.2031 49.2005 66.5078 50.237 66.5078 51.5859V52.1875H60.7812C60.8021 53.0208 61.0443 53.6953 61.5078 54.2109C61.9766 54.7214 62.5703 54.9766 63.2891 54.9766C63.7995 54.9766 64.2318 54.8724 64.5859 54.6641C64.9401 54.4557 65.25 54.1797 65.5156 53.8359L66.3984 54.5234C65.6901 55.612 64.6276 56.1562 63.2109 56.1562ZM63.0312 48.5781C62.4479 48.5781 61.9583 48.7917 61.5625 49.2188C61.1667 49.6406 60.9219 50.2344 60.8281 51H65.0625V50.8906C65.0208 50.1562 64.8229 49.5885 64.4688 49.1875C64.1146 48.7812 63.6354 48.5781 63.0312 48.5781ZM75.3438 51.8672C75.3438 53.1589 75.0469 54.1979 74.4531 54.9844C73.8594 55.7656 73.0625 56.1562 72.0625 56.1562C70.9948 56.1562 70.1693 55.7786 69.5859 55.0234L69.5156 56H68.1875V44H69.6328V48.4766C70.2161 47.7526 71.0208 47.3906 72.0469 47.3906C73.0729 47.3906 73.8776 47.7786 74.4609 48.5547C75.0495 49.3307 75.3438 50.3932 75.3438 51.7422V51.8672ZM73.8984 51.7031C73.8984 50.7188 73.7083 49.9583 73.3281 49.4219C72.9479 48.8854 72.401 48.6172 71.6875 48.6172C70.7344 48.6172 70.0495 49.0599 69.6328 49.9453V53.6016C70.0755 54.487 70.7656 54.9297 71.7031 54.9297C72.3958 54.9297 72.9349 54.6615 73.3203 54.125C73.7057 53.5885 73.8984 52.7812 73.8984 51.7031ZM88.4453 56H80.9922V54.9609L84.9297 50.5859C85.513 49.9245 85.9141 49.388 86.1328 48.9766C86.3568 48.5599 86.4688 48.1302 86.4688 47.6875C86.4688 47.0938 86.2891 46.6068 85.9297 46.2266C85.5703 45.8464 85.0911 45.6562 84.4922 45.6562C83.7734 45.6562 83.2135 45.862 82.8125 46.2734C82.4167 46.6797 82.2188 47.2474 82.2188 47.9766H80.7734C80.7734 46.9297 81.1094 46.0833 81.7812 45.4375C82.4583 44.7917 83.362 44.4688 84.4922 44.4688C85.5495 44.4688 86.3854 44.7474 87 45.3047C87.6146 45.8568 87.9219 46.5938 87.9219 47.5156C87.9219 48.6354 87.2083 49.9688 85.7812 51.5156L82.7344 54.8203H88.4453V56ZM97.1094 51.1484C97.1094 52.8411 96.8203 54.099 96.2422 54.9219C95.6641 55.7448 94.7604 56.1562 93.5312 56.1562C92.3177 56.1562 91.4193 55.7552 90.8359 54.9531C90.2526 54.1458 89.9505 52.9427 89.9297 51.3438V49.4141C89.9297 47.7422 90.2188 46.5 90.7969 45.6875C91.375 44.875 92.2812 44.4688 93.5156 44.4688C94.7396 44.4688 95.6406 44.862 96.2188 45.6484C96.7969 46.4297 97.0938 47.638 97.1094 49.2734V51.1484ZM95.6641 49.1719C95.6641 47.9479 95.4922 47.0573 95.1484 46.5C94.8047 45.9375 94.2604 45.6562 93.5156 45.6562C92.776 45.6562 92.237 45.9349 91.8984 46.4922C91.5599 47.0495 91.3854 47.9062 91.375 49.0625V51.375C91.375 52.6042 91.5521 53.513 91.9062 54.1016C92.2656 54.6849 92.8073 54.9766 93.5312 54.9766C94.2448 54.9766 94.7734 54.7005 95.1172 54.1484C95.4661 53.5964 95.6484 52.7266 95.6641 51.5391V49.1719ZM106.414 56H98.9609V54.9609L102.898 50.5859C103.482 49.9245 103.883 49.388 104.102 48.9766C104.326 48.5599 104.438 48.1302 104.438 47.6875C104.438 47.0938 104.258 46.6068 103.898 46.2266C103.539 45.8464 103.06 45.6562 102.461 45.6562C101.742 45.6562 101.182 45.862 100.781 46.2734C100.385 46.6797 100.188 47.2474 100.188 47.9766H98.7422C98.7422 46.9297 99.0781 46.0833 99.75 45.4375C100.427 44.7917 101.331 44.4688 102.461 44.4688C103.518 44.4688 104.354 44.7474 104.969 45.3047C105.583 45.8568 105.891 46.5938 105.891 47.5156C105.891 48.6354 105.177 49.9688 103.75 51.5156L100.703 54.8203H106.414V56ZM112.695 56H111.242V46.3672L108.328 47.4375V46.125L112.469 44.5703H112.695V56Z" fill="black"/>
<path d="M0.491071 47.5H17.8423C18.1124 47.5 18.3333 47.7109 18.3333 47.9688V58.125C18.3333 59.1602 17.4535 60 16.369 60H1.96429C0.879836 60 0 59.1602 0 58.125V47.9688C0 47.7109 0.220982 47.5 0.491071 47.5ZM18.3333 45.7812V44.375C18.3333 43.3398 17.4535 42.5 16.369 42.5H14.4048V40.4688C14.4048 40.2109 14.1838 40 13.9137 40H12.2768C12.0067 40 11.7857 40.2109 11.7857 40.4688V42.5H6.54762V40.4688C6.54762 40.2109 6.32664 40 6.05655 40H4.41964C4.14955 40 3.92857 40.2109 3.92857 40.4688V42.5H1.96429C0.879836 42.5 0 43.3398 0 44.375V45.7812C0 46.0391 0.220982 46.25 0.491071 46.25H17.8423C18.1124 46.25 18.3333 46.0391 18.3333 45.7812Z" fill="black"/>
</svg>
