<svg width="285" height="77" viewBox="0 0 285 77" fill="none" xmlns="http://www.w3.org/2000/svg">
<path d="M9.82422 11.8379H4.19922V15.6465H10.8008V18H1.26953V3.78125H10.7812V6.1543H4.19922V9.54297H9.82422V11.8379ZM23.4961 9.5918H21.8262V14.6992C21.8262 15.0833 21.8978 15.3633 22.041 15.5391C22.1908 15.7083 22.4805 15.793 22.9102 15.793C23.1966 15.793 23.4701 15.7669 23.7305 15.7148V17.8535C23.2227 18.0228 22.6562 18.1074 22.0312 18.1074C20.0521 18.1074 19.043 17.1081 19.0039 15.1094V9.5918H16.3086V18H13.4863V9.5918H11.7578V7.43359H23.4961V9.5918ZM34.0918 9.69922H30.6152V14.7969C30.6152 15.181 30.6836 15.4609 30.8203 15.6367C30.957 15.8125 31.1849 15.9004 31.5039 15.9004C31.8099 15.9004 32.1289 15.8451 32.4609 15.7344L32.7539 17.8828C32.2005 18.0911 31.5918 18.1953 30.9277 18.1953C29.9512 18.1953 29.1862 17.9219 28.6328 17.375C28.0794 16.8216 27.7995 15.9655 27.793 14.8066V9.69922H24.5508V7.43359H34.0918V9.69922ZM44.3652 7.43359V14.7285C44.3848 15.4967 44.6159 15.8809 45.0586 15.8809C45.1497 15.8809 45.2214 15.8678 45.2734 15.8418L45.5078 17.9609C45.1823 18.1237 44.7754 18.2051 44.2871 18.2051C43.1087 18.2051 42.2982 17.6615 41.8555 16.5742C41.2174 17.6549 40.3092 18.1953 39.1309 18.1953C37.9264 18.1953 36.9564 17.7689 36.2207 16.916C35.485 16.0566 35.0846 14.8815 35.0195 13.3906L35.0098 12.7949C35.0098 11.0827 35.3809 9.72852 36.123 8.73242C36.8652 7.73633 37.8743 7.23828 39.1504 7.23828C40.2246 7.23828 41.0775 7.72656 41.709 8.70312L41.9141 7.43359H44.3652ZM37.8418 13C37.8418 14.9531 38.5091 15.9297 39.8438 15.9297C40.6185 15.9297 41.1849 15.6172 41.543 14.9922V10.5488C41.1849 9.86523 40.625 9.52344 39.8633 9.52344C39.2188 9.52344 38.7207 9.80339 38.3691 10.3633C38.0176 10.9232 37.8418 11.8021 37.8418 13ZM40.0195 2.36523H42.5781L40.9863 5.73438H39.3066L40.0195 2.36523ZM55.5859 14.5527L57.5488 7.43359H60.498L56.9336 18H54.2383L50.6738 7.43359H53.623L55.5859 14.5527ZM61.5918 15.0117C61.5918 13.8138 62.2559 12.9967 63.584 12.5605C63.0176 12.3262 62.5749 12.0137 62.2559 11.623C61.9368 11.2259 61.7773 10.793 61.7773 10.3242C61.7773 9.36719 62.1973 8.61523 63.0371 8.06836C63.8835 7.52148 65.0358 7.24805 66.4941 7.24805C67.8027 7.24805 68.8737 7.55078 69.707 8.15625C70.5404 8.76172 70.957 9.53646 70.957 10.4805H68.1348C68.1348 10.1484 67.9688 9.88151 67.6367 9.67969C67.3112 9.47786 66.8815 9.37695 66.3477 9.37695C65.8203 9.37695 65.3971 9.48438 65.0781 9.69922C64.7591 9.91406 64.5996 10.1973 64.5996 10.5488C64.5996 10.8874 64.7461 11.1576 65.0391 11.3594C65.332 11.5612 65.7715 11.6621 66.3574 11.6621H68.1836V13.5469H66.3184C65.0423 13.5534 64.4043 13.9733 64.4043 14.8066C64.4043 15.1647 64.5801 15.4674 64.9316 15.7148C65.2897 15.9557 65.7585 16.0762 66.3379 16.0762C66.9368 16.0762 67.4121 15.9622 67.7637 15.7344C68.1217 15.5065 68.3008 15.2201 68.3008 14.875H71.123C71.123 15.8776 70.6901 16.6816 69.8242 17.2871C68.9583 17.8926 67.8483 18.1953 66.4941 18.1953C65.0423 18.1953 63.8607 17.9056 62.9492 17.3262C62.0443 16.7402 61.5918 15.9688 61.5918 15.0117ZM66.0449 2.36523H68.6035L67.0117 5.73438H65.332L66.0449 2.36523ZM81.8652 7.43359V14.7285C81.8848 15.4967 82.1159 15.8809 82.5586 15.8809C82.6497 15.8809 82.7214 15.8678 82.7734 15.8418L83.0078 17.9609C82.6823 18.1237 82.2754 18.2051 81.7871 18.2051C80.6087 18.2051 79.7982 17.6615 79.3555 16.5742C78.7174 17.6549 77.8092 18.1953 76.6309 18.1953C75.4264 18.1953 74.4564 17.7689 73.7207 16.916C72.985 16.0566 72.5846 14.8815 72.5195 13.3906L72.5098 12.7949C72.5098 11.0827 72.8809 9.72852 73.623 8.73242C74.3652 7.73633 75.3743 7.23828 76.6504 7.23828C77.7246 7.23828 78.5775 7.72656 79.209 8.70312L79.4141 7.43359H81.8652ZM75.3418 13C75.3418 14.9531 76.0091 15.9297 77.3438 15.9297C78.1185 15.9297 78.6849 15.6172 79.043 14.9922V10.5488C78.6849 9.86523 78.125 9.52344 77.3633 9.52344C76.7188 9.52344 76.2207 9.80339 75.8691 10.3633C75.5176 10.9232 75.3418 11.8021 75.3418 13ZM93.291 14.1035H92.1387V18H89.3164V7.43359H92.1387V11.4082H92.9883L95.7422 7.43359H99.3066L95.5957 12.5215L99.4727 18H95.8496L93.291 14.1035ZM105.762 7.23828C107.22 7.23828 108.366 7.73633 109.199 8.73242C110.033 9.72852 110.449 11.1087 110.449 12.873V13C110.449 14.6146 110.078 15.8841 109.336 16.8086C108.6 17.7331 107.607 18.1953 106.357 18.1953C105.296 18.1953 104.434 17.8014 103.77 17.0137V22.0625H100.947V12.4531C100.947 10.8646 101.387 9.59831 102.266 8.6543C103.145 7.71029 104.31 7.23828 105.762 7.23828ZM103.77 15.0312C104.134 15.6302 104.749 15.9297 105.615 15.9297C106.266 15.9297 106.764 15.6855 107.109 15.1973C107.454 14.7025 107.627 13.9017 107.627 12.7949C107.627 11.7402 107.451 10.9329 107.1 10.373C106.755 9.80664 106.263 9.52344 105.625 9.52344C105.046 9.52344 104.59 9.79362 104.258 10.334C103.932 10.8678 103.77 11.6491 103.77 12.6777V15.0312ZM111.777 12.6191C111.777 11.571 111.979 10.6367 112.383 9.81641C112.786 8.99609 113.366 8.36133 114.121 7.91211C114.883 7.46289 115.765 7.23828 116.768 7.23828C118.193 7.23828 119.355 7.67448 120.254 8.54688C121.159 9.41927 121.663 10.6042 121.768 12.1016L121.787 12.8242C121.787 14.4453 121.335 15.7474 120.43 16.7305C119.525 17.707 118.311 18.1953 116.787 18.1953C115.264 18.1953 114.046 17.707 113.135 16.7305C112.23 15.7539 111.777 14.4258 111.777 12.7461V12.6191ZM114.6 12.8242C114.6 13.8268 114.788 14.5951 115.166 15.1289C115.544 15.6562 116.084 15.9199 116.787 15.9199C117.471 15.9199 118.005 15.6595 118.389 15.1387C118.773 14.6113 118.965 13.7715 118.965 12.6191C118.965 11.6361 118.773 10.8743 118.389 10.334C118.005 9.79362 117.464 9.52344 116.768 9.52344C116.077 9.52344 115.544 9.79362 115.166 10.334C114.788 10.8678 114.6 11.6979 114.6 12.8242ZM126.377 7.43359V13.8984C126.377 15.2526 126.787 15.9297 127.607 15.9297C128.232 15.9297 128.75 15.5977 129.16 14.9336C129.577 14.263 129.785 13.4427 129.785 12.4727C129.759 10.9362 129.427 9.25651 128.789 7.43359H131.484C132.227 8.91797 132.598 10.5977 132.598 12.4727C132.598 14.2565 132.174 15.6595 131.328 16.6816C130.482 17.6973 129.274 18.2051 127.705 18.2051C126.351 18.2051 125.322 17.8438 124.619 17.1211C123.916 16.3919 123.558 15.3535 123.545 14.0059V7.43359H126.377ZM127.627 2.41406H130.186L128.594 5.7832H126.914L127.627 2.41406ZM144.59 9.71875H142.109C143.249 10.6432 143.818 11.8118 143.818 13.2246C143.818 14.709 143.379 15.9102 142.5 16.8281C141.621 17.7396 140.452 18.1953 138.994 18.1953C137.484 18.1953 136.273 17.7103 135.361 16.7402C134.456 15.7702 134.004 14.4388 134.004 12.7461V12.6191C134.004 11.0632 134.45 9.8099 135.342 8.85938C136.24 7.90885 137.464 7.43359 139.014 7.43359H144.59V9.71875ZM136.826 12.8242C136.826 13.8398 137.012 14.6113 137.383 15.1387C137.76 15.666 138.298 15.9297 138.994 15.9297C139.632 15.9297 140.124 15.666 140.469 15.1387C140.82 14.6113 140.996 13.7715 140.996 12.6191C140.996 11.6947 140.82 10.9818 140.469 10.4805C140.117 9.97266 139.619 9.71875 138.975 9.71875C138.298 9.71875 137.77 9.96615 137.393 10.4609C137.015 10.9557 136.826 11.7435 136.826 12.8242ZM148.984 7.43359V13.5176C148.984 14.3379 149.115 14.9434 149.375 15.334C149.642 15.7181 150.098 15.9102 150.742 15.9102C151.712 15.9102 152.38 15.5684 152.744 14.8848V7.43359H155.566V18H152.939L152.881 17.3359C152.301 17.9154 151.569 18.2051 150.684 18.2051C150.02 18.2051 149.453 18.0586 148.984 17.7656V22.0625H146.162V7.43359H148.984ZM167.197 7.43359V14.7285C167.217 15.4967 167.448 15.8809 167.891 15.8809C167.982 15.8809 168.053 15.8678 168.105 15.8418L168.34 17.9609C168.014 18.1237 167.607 18.2051 167.119 18.2051C165.941 18.2051 165.13 17.6615 164.688 16.5742C164.049 17.6549 163.141 18.1953 161.963 18.1953C160.758 18.1953 159.788 17.7689 159.053 16.916C158.317 16.0566 157.917 14.8815 157.852 13.3906L157.842 12.7949C157.842 11.0827 158.213 9.72852 158.955 8.73242C159.697 7.73633 160.706 7.23828 161.982 7.23828C163.057 7.23828 163.91 7.72656 164.541 8.70312L164.746 7.43359H167.197ZM160.674 13C160.674 14.9531 161.341 15.9297 162.676 15.9297C163.451 15.9297 164.017 15.6172 164.375 14.9922V10.5488C164.017 9.86523 163.457 9.52344 162.695 9.52344C162.051 9.52344 161.553 9.80339 161.201 10.3633C160.85 10.9232 160.674 11.8021 160.674 13ZM178.369 9.69922H174.893V14.7969C174.893 15.181 174.961 15.4609 175.098 15.6367C175.234 15.8125 175.462 15.9004 175.781 15.9004C176.087 15.9004 176.406 15.8451 176.738 15.7344L177.031 17.8828C176.478 18.0911 175.869 18.1953 175.205 18.1953C174.229 18.1953 173.464 17.9219 172.91 17.375C172.357 16.8216 172.077 15.9655 172.07 14.8066V9.69922H168.828V7.43359H178.369V9.69922ZM188.643 7.43359V14.7285C188.662 15.4967 188.893 15.8809 189.336 15.8809C189.427 15.8809 189.499 15.8678 189.551 15.8418L189.785 17.9609C189.46 18.1237 189.053 18.2051 188.564 18.2051C187.386 18.2051 186.576 17.6615 186.133 16.5742C185.495 17.6549 184.587 18.1953 183.408 18.1953C182.204 18.1953 181.234 17.7689 180.498 16.916C179.762 16.0566 179.362 14.8815 179.297 13.3906L179.287 12.7949C179.287 11.0827 179.658 9.72852 180.4 8.73242C181.143 7.73633 182.152 7.23828 183.428 7.23828C184.502 7.23828 185.355 7.72656 185.986 8.70312L186.191 7.43359H188.643ZM182.119 13C182.119 14.9531 182.786 15.9297 184.121 15.9297C184.896 15.9297 185.462 15.6172 185.82 14.9922V10.5488C185.462 9.86523 184.902 9.52344 184.141 9.52344C183.496 9.52344 182.998 9.80339 182.646 10.3633C182.295 10.9232 182.119 11.8021 182.119 13ZM206.055 9.71875H203.574C204.714 10.6432 205.283 11.8118 205.283 13.2246C205.283 14.709 204.844 15.9102 203.965 16.8281C203.086 17.7396 201.917 18.1953 200.459 18.1953C198.949 18.1953 197.738 17.7103 196.826 16.7402C195.921 15.7702 195.469 14.4388 195.469 12.7461V12.6191C195.469 11.0632 195.915 9.8099 196.807 8.85938C197.705 7.90885 198.929 7.43359 200.479 7.43359H206.055V9.71875ZM198.291 12.8242C198.291 13.8398 198.477 14.6113 198.848 15.1387C199.225 15.666 199.762 15.9297 200.459 15.9297C201.097 15.9297 201.589 15.666 201.934 15.1387C202.285 14.6113 202.461 13.7715 202.461 12.6191C202.461 11.6947 202.285 10.9818 201.934 10.4805C201.582 9.97266 201.084 9.71875 200.439 9.71875C199.762 9.71875 199.235 9.96615 198.857 10.4609C198.48 10.9557 198.291 11.7435 198.291 12.8242ZM216.553 9.69922H213.076V14.7969C213.076 15.181 213.145 15.4609 213.281 15.6367C213.418 15.8125 213.646 15.9004 213.965 15.9004C214.271 15.9004 214.59 15.8451 214.922 15.7344L215.215 17.8828C214.661 18.0911 214.053 18.1953 213.389 18.1953C212.412 18.1953 211.647 17.9219 211.094 17.375C210.54 16.8216 210.26 15.9655 210.254 14.8066V9.69922H207.012V7.43359H216.553V9.69922ZM220.674 7.43359L220.781 8.73242C221.556 7.73633 222.568 7.23828 223.818 7.23828C226.032 7.23828 227.165 8.50456 227.217 11.0371V22.0527H224.385V11.1641C224.365 10.0703 223.831 9.52344 222.783 9.52344C221.956 9.52344 221.318 9.82617 220.869 10.4316V18H218.047V7.43359H220.674ZM233.32 14.5527L235.283 7.43359H238.232L234.668 18H231.973L228.408 7.43359H231.357L233.32 14.5527ZM5.72266 35.2969L4.19922 36.9375V41H1.26953V26.7812H4.19922V33.2266L5.48828 31.459L9.11133 26.7812H12.7148L7.66602 33.0996L12.8613 41H9.375L5.72266 35.2969ZM13.623 38.0117C13.623 36.8138 14.2871 35.9967 15.6152 35.5605C15.0488 35.3262 14.6061 35.0137 14.2871 34.623C13.9681 34.2259 13.8086 33.793 13.8086 33.3242C13.8086 32.3672 14.2285 31.6152 15.0684 31.0684C15.9147 30.5215 17.0671 30.248 18.5254 30.248C19.834 30.248 20.9049 30.5508 21.7383 31.1562C22.5716 31.7617 22.9883 32.5365 22.9883 33.4805H20.166C20.166 33.1484 20 32.8815 19.668 32.6797C19.3424 32.4779 18.9128 32.377 18.3789 32.377C17.8516 32.377 17.4284 32.4844 17.1094 32.6992C16.7904 32.9141 16.6309 33.1973 16.6309 33.5488C16.6309 33.8874 16.7773 34.1576 17.0703 34.3594C17.3633 34.5612 17.8027 34.6621 18.3887 34.6621H20.2148V36.5469H18.3496C17.0736 36.5534 16.4355 36.9733 16.4355 37.8066C16.4355 38.1647 16.6113 38.4674 16.9629 38.7148C17.321 38.9557 17.7897 39.0762 18.3691 39.0762C18.9681 39.0762 19.4434 38.9622 19.7949 38.7344C20.153 38.5065 20.332 38.2201 20.332 37.875H23.1543C23.1543 38.8776 22.7214 39.6816 21.8555 40.2871C20.9896 40.8926 19.8796 41.1953 18.5254 41.1953C17.0736 41.1953 15.8919 40.9056 14.9805 40.3262C14.0755 39.7402 13.623 38.9688 13.623 38.0117ZM18.0762 25.3652H20.6348L19.043 28.7344H17.3633L18.0762 25.3652ZM29.7461 30.2383C31.2044 30.2383 32.3503 30.7363 33.1836 31.7324C34.0169 32.7285 34.4336 34.1087 34.4336 35.873V36C34.4336 37.6146 34.0625 38.8841 33.3203 39.8086C32.5846 40.7331 31.5918 41.1953 30.3418 41.1953C29.2806 41.1953 28.418 40.8014 27.7539 40.0137V45.0625H24.9316V35.4531C24.9316 33.8646 25.3711 32.5983 26.25 31.6543C27.1289 30.7103 28.2943 30.2383 29.7461 30.2383ZM27.7539 38.0312C28.1185 38.6302 28.7337 38.9297 29.5996 38.9297C30.2507 38.9297 30.7487 38.6855 31.0938 38.1973C31.4388 37.7025 31.6113 36.9017 31.6113 35.7949C31.6113 34.7402 31.4355 33.9329 31.084 33.373C30.7389 32.8066 30.2474 32.5234 29.6094 32.5234C29.0299 32.5234 28.5742 32.7936 28.2422 33.334C27.9167 33.8678 27.7539 34.6491 27.7539 35.6777V38.0312ZM40.3613 37.1035H39.209V41H36.3867V30.4336H39.209V34.4082H40.0586L42.8125 30.4336H46.377L42.666 35.5215L46.543 41H42.9199L40.3613 37.1035ZM50.8496 30.4336V36.8984C50.8496 38.2526 51.2598 38.9297 52.0801 38.9297C52.7051 38.9297 53.2227 38.5977 53.6328 37.9336C54.0495 37.263 54.2578 36.4427 54.2578 35.4727C54.2318 33.9362 53.8997 32.2565 53.2617 30.4336H55.957C56.6992 31.918 57.0703 33.5977 57.0703 35.4727C57.0703 37.2565 56.6471 38.6595 55.8008 39.6816C54.9544 40.6973 53.7467 41.2051 52.1777 41.2051C50.8236 41.2051 49.7949 40.8438 49.0918 40.1211C48.3887 39.3919 48.0306 38.3535 48.0176 37.0059V30.4336H50.8496ZM63.75 30.2383C65.2083 30.2383 66.3542 30.7363 67.1875 31.7324C68.0208 32.7285 68.4375 34.1087 68.4375 35.873V36C68.4375 37.6146 68.0664 38.8841 67.3242 39.8086C66.5885 40.7331 65.5957 41.1953 64.3457 41.1953C63.2845 41.1953 62.4219 40.8014 61.7578 40.0137V45.0625H58.9355V35.4531C58.9355 33.8646 59.375 32.5983 60.2539 31.6543C61.1328 30.7103 62.2982 30.2383 63.75 30.2383ZM61.7578 38.0312C62.1224 38.6302 62.7376 38.9297 63.6035 38.9297C64.2546 38.9297 64.7526 38.6855 65.0977 38.1973C65.4427 37.7025 65.6152 36.9017 65.6152 35.7949C65.6152 34.7402 65.4395 33.9329 65.0879 33.373C64.7428 32.8066 64.2513 32.5234 63.6133 32.5234C63.0339 32.5234 62.5781 32.7936 62.2461 33.334C61.9206 33.8678 61.7578 34.6491 61.7578 35.6777V38.0312ZM79.1895 30.4336V37.7285C79.209 38.4967 79.4401 38.8809 79.8828 38.8809C79.974 38.8809 80.0456 38.8678 80.0977 38.8418L80.332 40.9609C80.0065 41.1237 79.5996 41.2051 79.1113 41.2051C77.9329 41.2051 77.1224 40.6615 76.6797 39.5742C76.0417 40.6549 75.1335 41.1953 73.9551 41.1953C72.7507 41.1953 71.7806 40.7689 71.0449 39.916C70.3092 39.0566 69.9089 37.8815 69.8438 36.3906L69.834 35.7949C69.834 34.0827 70.2051 32.7285 70.9473 31.7324C71.6895 30.7363 72.6986 30.2383 73.9746 30.2383C75.0488 30.2383 75.9017 30.7266 76.5332 31.7031L76.7383 30.4336H79.1895ZM72.666 36C72.666 37.9531 73.3333 38.9297 74.668 38.9297C75.4427 38.9297 76.0091 38.6172 76.3672 37.9922V33.5488C76.0091 32.8652 75.4492 32.5234 74.6875 32.5234C74.043 32.5234 73.5449 32.8034 73.1934 33.3633C72.8418 33.9232 72.666 34.8021 72.666 36Z" fill="black"/>
<path d="M33.6953 73H32.2422V63.3672L29.3281 64.4375V63.125L33.4688 61.5703H33.6953V73ZM42.6797 73H41.2266V63.3672L38.3125 64.4375V63.125L42.4531 61.5703H42.6797V73ZM57.5312 67.9766H52.7578V73H51.2578V61.625H58.3047V62.8594H52.7578V66.75H57.5312V67.9766ZM63.2109 73.1562C62.0651 73.1562 61.1328 72.7812 60.4141 72.0312C59.6953 71.276 59.3359 70.2682 59.3359 69.0078V68.7422C59.3359 67.9036 59.4948 67.1562 59.8125 66.5C60.1354 65.8385 60.5833 65.3229 61.1562 64.9531C61.7344 64.5781 62.3594 64.3906 63.0312 64.3906C64.1302 64.3906 64.9844 64.7526 65.5938 65.4766C66.2031 66.2005 66.5078 67.237 66.5078 68.5859V69.1875H60.7812C60.8021 70.0208 61.0443 70.6953 61.5078 71.2109C61.9766 71.7214 62.5703 71.9766 63.2891 71.9766C63.7995 71.9766 64.2318 71.8724 64.5859 71.6641C64.9401 71.4557 65.25 71.1797 65.5156 70.8359L66.3984 71.5234C65.6901 72.612 64.6276 73.1562 63.2109 73.1562ZM63.0312 65.5781C62.4479 65.5781 61.9583 65.7917 61.5625 66.2188C61.1667 66.6406 60.9219 67.2344 60.8281 68H65.0625V67.8906C65.0208 67.1562 64.8229 66.5885 64.4688 66.1875C64.1146 65.7812 63.6354 65.5781 63.0312 65.5781ZM75.3438 68.8672C75.3438 70.1589 75.0469 71.1979 74.4531 71.9844C73.8594 72.7656 73.0625 73.1562 72.0625 73.1562C70.9948 73.1562 70.1693 72.7786 69.5859 72.0234L69.5156 73H68.1875V61H69.6328V65.4766C70.2161 64.7526 71.0208 64.3906 72.0469 64.3906C73.0729 64.3906 73.8776 64.7786 74.4609 65.5547C75.0495 66.3307 75.3438 67.3932 75.3438 68.7422V68.8672ZM73.8984 68.7031C73.8984 67.7188 73.7083 66.9583 73.3281 66.4219C72.9479 65.8854 72.401 65.6172 71.6875 65.6172C70.7344 65.6172 70.0495 66.0599 69.6328 66.9453V70.6016C70.0755 71.487 70.7656 71.9297 71.7031 71.9297C72.3958 71.9297 72.9349 71.6615 73.3203 71.125C73.7057 70.5885 73.8984 69.7812 73.8984 68.7031ZM88.4453 73H80.9922V71.9609L84.9297 67.5859C85.513 66.9245 85.9141 66.388 86.1328 65.9766C86.3568 65.5599 86.4688 65.1302 86.4688 64.6875C86.4688 64.0938 86.2891 63.6068 85.9297 63.2266C85.5703 62.8464 85.0911 62.6562 84.4922 62.6562C83.7734 62.6562 83.2135 62.862 82.8125 63.2734C82.4167 63.6797 82.2188 64.2474 82.2188 64.9766H80.7734C80.7734 63.9297 81.1094 63.0833 81.7812 62.4375C82.4583 61.7917 83.362 61.4688 84.4922 61.4688C85.5495 61.4688 86.3854 61.7474 87 62.3047C87.6146 62.8568 87.9219 63.5938 87.9219 64.5156C87.9219 65.6354 87.2083 66.9688 85.7812 68.5156L82.7344 71.8203H88.4453V73ZM97.1094 68.1484C97.1094 69.8411 96.8203 71.099 96.2422 71.9219C95.6641 72.7448 94.7604 73.1562 93.5312 73.1562C92.3177 73.1562 91.4193 72.7552 90.8359 71.9531C90.2526 71.1458 89.9505 69.9427 89.9297 68.3438V66.4141C89.9297 64.7422 90.2188 63.5 90.7969 62.6875C91.375 61.875 92.2812 61.4688 93.5156 61.4688C94.7396 61.4688 95.6406 61.862 96.2188 62.6484C96.7969 63.4297 97.0938 64.638 97.1094 66.2734V68.1484ZM95.6641 66.1719C95.6641 64.9479 95.4922 64.0573 95.1484 63.5C94.8047 62.9375 94.2604 62.6562 93.5156 62.6562C92.776 62.6562 92.237 62.9349 91.8984 63.4922C91.5599 64.0495 91.3854 64.9062 91.375 66.0625V68.375C91.375 69.6042 91.5521 70.513 91.9062 71.1016C92.2656 71.6849 92.8073 71.9766 93.5312 71.9766C94.2448 71.9766 94.7734 71.7005 95.1172 71.1484C95.4661 70.5964 95.6484 69.7266 95.6641 68.5391V66.1719ZM106.414 73H98.9609V71.9609L102.898 67.5859C103.482 66.9245 103.883 66.388 104.102 65.9766C104.326 65.5599 104.438 65.1302 104.438 64.6875C104.438 64.0938 104.258 63.6068 103.898 63.2266C103.539 62.8464 103.06 62.6562 102.461 62.6562C101.742 62.6562 101.182 62.862 100.781 63.2734C100.385 63.6797 100.188 64.2474 100.188 64.9766H98.7422C98.7422 63.9297 99.0781 63.0833 99.75 62.4375C100.427 61.7917 101.331 61.4688 102.461 61.4688C103.518 61.4688 104.354 61.7474 104.969 62.3047C105.583 62.8568 105.891 63.5938 105.891 64.5156C105.891 65.6354 105.177 66.9688 103.75 68.5156L100.703 71.8203H106.414V73ZM112.695 73H111.242V63.3672L108.328 64.4375V63.125L112.469 61.5703H112.695V73Z" fill="black"/>
<path d="M0.491071 64.5H17.8423C18.1124 64.5 18.3333 64.7109 18.3333 64.9688V75.125C18.3333 76.1602 17.4535 77 16.369 77H1.96429C0.879836 77 0 76.1602 0 75.125V64.9688C0 64.7109 0.220982 64.5 0.491071 64.5ZM18.3333 62.7812V61.375C18.3333 60.3398 17.4535 59.5 16.369 59.5H14.4048V57.4688C14.4048 57.2109 14.1838 57 13.9137 57H12.2768C12.0067 57 11.7857 57.2109 11.7857 57.4688V59.5H6.54762V57.4688C6.54762 57.2109 6.32664 57 6.05655 57H4.41964C4.14955 57 3.92857 57.2109 3.92857 57.4688V59.5H1.96429C0.879836 59.5 0 60.3398 0 61.375V62.7812C0 63.0391 0.220982 63.25 0.491071 63.25H17.8423C18.1124 63.25 18.3333 63.0391 18.3333 62.7812Z" fill="black"/>
</svg>
