<svg width="405" height="75" viewBox="0 0 405 75" fill="none" xmlns="http://www.w3.org/2000/svg">
<path d="M12.9492 11.2129C12.9492 12.6126 12.7018 13.8398 12.207 14.8945C11.7122 15.9492 11.0026 16.763 10.0781 17.3359C9.16016 17.9089 8.10547 18.1953 6.91406 18.1953C5.73568 18.1953 4.68424 17.9121 3.75977 17.3457C2.83529 16.7793 2.11914 15.972 1.61133 14.9238C1.10352 13.8691 0.846354 12.6582 0.839844 11.291V10.5879C0.839844 9.18815 1.09049 7.95768 1.5918 6.89648C2.09961 5.82878 2.8125 5.01172 3.73047 4.44531C4.65495 3.8724 5.70964 3.58594 6.89453 3.58594C8.07943 3.58594 9.13086 3.8724 10.0488 4.44531C10.9733 5.01172 11.6862 5.82878 12.1875 6.89648C12.6953 7.95768 12.9492 9.1849 12.9492 10.5781V11.2129ZM9.98047 10.5684C9.98047 9.07747 9.71354 7.94466 9.17969 7.16992C8.64583 6.39518 7.88411 6.00781 6.89453 6.00781C5.91146 6.00781 5.15299 6.39193 4.61914 7.16016C4.08529 7.92188 3.8151 9.04167 3.80859 10.5195V11.2129C3.80859 12.6647 4.07552 13.791 4.60938 14.5918C5.14323 15.3926 5.91146 15.793 6.91406 15.793C7.89714 15.793 8.65234 15.4089 9.17969 14.6406C9.70703 13.8659 9.97396 12.7396 9.98047 11.2617V10.5684ZM25.1465 8.68359L27.8125 3.78125H31.1816L27.041 10.832L31.2891 18H27.8809L25.1465 13.0195L22.4121 18H19.0039L23.252 10.832L19.1113 3.78125H22.4805L25.1465 8.68359ZM37.4219 7.23828C38.8802 7.23828 40.026 7.73633 40.8594 8.73242C41.6927 9.72852 42.1094 11.1087 42.1094 12.873V13C42.1094 14.6146 41.7383 15.8841 40.9961 16.8086C40.2604 17.7331 39.2676 18.1953 38.0176 18.1953C36.9564 18.1953 36.0938 17.8014 35.4297 17.0137V22.0625H32.6074V12.4531C32.6074 10.8646 33.0469 9.59831 33.9258 8.6543C34.8047 7.71029 35.9701 7.23828 37.4219 7.23828ZM35.4297 15.0312C35.7943 15.6302 36.4095 15.9297 37.2754 15.9297C37.9264 15.9297 38.4245 15.6855 38.7695 15.1973C39.1146 14.7025 39.2871 13.9017 39.2871 12.7949C39.2871 11.7402 39.1113 10.9329 38.7598 10.373C38.4147 9.80664 37.9232 9.52344 37.2852 9.52344C36.7057 9.52344 36.25 9.79362 35.918 10.334C35.5924 10.8678 35.4297 11.6491 35.4297 12.6777V15.0312ZM46.4746 7.43359L46.582 8.73242C47.3568 7.73633 48.3691 7.23828 49.6191 7.23828C51.8327 7.23828 52.9655 8.50456 53.0176 11.0371V22.0527H50.1855V11.1641C50.166 10.0703 49.6322 9.52344 48.584 9.52344C47.7572 9.52344 47.1191 9.82617 46.6699 10.4316V18H43.8477V7.43359H46.4746ZM48.1055 2.36523H50.6641L49.0723 5.73438H47.3926L48.1055 2.36523ZM65.3125 9.71875H62.832C63.9714 10.6432 64.541 11.8118 64.541 13.2246C64.541 14.709 64.1016 15.9102 63.2227 16.8281C62.3438 17.7396 61.1751 18.1953 59.7168 18.1953C58.2064 18.1953 56.9954 17.7103 56.084 16.7402C55.179 15.7702 54.7266 14.4388 54.7266 12.7461V12.6191C54.7266 11.0632 55.1725 9.8099 56.0645 8.85938C56.9629 7.90885 58.1868 7.43359 59.7363 7.43359H65.3125V9.71875ZM57.5488 12.8242C57.5488 13.8398 57.7344 14.6113 58.1055 15.1387C58.4831 15.666 59.0202 15.9297 59.7168 15.9297C60.3548 15.9297 60.8464 15.666 61.1914 15.1387C61.543 14.6113 61.7188 13.7715 61.7188 12.6191C61.7188 11.6947 61.543 10.9818 61.1914 10.4805C60.8398 9.97266 60.3418 9.71875 59.6973 9.71875C59.0202 9.71875 58.4928 9.96615 58.1152 10.4609C57.7376 10.9557 57.5488 11.7435 57.5488 12.8242ZM75.8105 9.69922H72.334V14.7969C72.334 15.181 72.4023 15.4609 72.5391 15.6367C72.6758 15.8125 72.9036 15.9004 73.2227 15.9004C73.5286 15.9004 73.8477 15.8451 74.1797 15.7344L74.4727 17.8828C73.9193 18.0911 73.3105 18.1953 72.6465 18.1953C71.6699 18.1953 70.9049 17.9219 70.3516 17.375C69.7982 16.8216 69.5182 15.9655 69.5117 14.8066V9.69922H66.2695V7.43359H75.8105V9.69922ZM76.6797 12.6191C76.6797 11.571 76.8815 10.6367 77.2852 9.81641C77.6888 8.99609 78.2682 8.36133 79.0234 7.91211C79.7852 7.46289 80.6673 7.23828 81.6699 7.23828C83.0957 7.23828 84.2578 7.67448 85.1562 8.54688C86.0612 9.41927 86.5658 10.6042 86.6699 12.1016L86.6895 12.8242C86.6895 14.4453 86.237 15.7474 85.332 16.7305C84.4271 17.707 83.2129 18.1953 81.6895 18.1953C80.166 18.1953 78.9486 17.707 78.0371 16.7305C77.1322 15.7539 76.6797 14.4258 76.6797 12.7461V12.6191ZM79.502 12.8242C79.502 13.8268 79.6908 14.5951 80.0684 15.1289C80.446 15.6562 80.9863 15.9199 81.6895 15.9199C82.373 15.9199 82.9069 15.6595 83.291 15.1387C83.6751 14.6113 83.8672 13.7715 83.8672 12.6191C83.8672 11.6361 83.6751 10.8743 83.291 10.334C82.9069 9.79362 82.3665 9.52344 81.6699 9.52344C80.9798 9.52344 80.446 9.79362 80.0684 10.334C79.6908 10.8678 79.502 11.6979 79.502 12.8242ZM92.8418 7.23828C94.1634 7.23828 95.2148 7.61263 95.9961 8.36133C96.7773 9.11003 97.168 10.1126 97.168 11.3691H94.5117C94.5117 10.8092 94.362 10.3633 94.0625 10.0312C93.7695 9.69271 93.3626 9.52344 92.8418 9.52344C92.1908 9.52344 91.6862 9.77734 91.3281 10.2852C90.9766 10.793 90.7975 11.5514 90.791 12.5605V12.8633C90.791 13.6706 90.9766 14.2956 91.3477 14.7383C91.7188 15.1745 92.3503 15.5195 93.2422 15.7734C94.1406 16.0208 94.7689 16.2454 95.127 16.4473C95.485 16.6426 95.7552 16.89 95.9375 17.1895C96.1263 17.4889 96.2272 17.8698 96.2402 18.332C96.2402 18.8464 96.0156 19.4258 95.5664 20.0703C95.1237 20.7148 94.6094 21.2422 94.0234 21.6523L92.5488 20.5391C93.1608 19.901 93.4603 19.3542 93.4473 18.8984C93.4473 18.4297 93.1022 18.1172 92.4121 17.9609C90.8691 17.5573 89.7461 16.9583 89.043 16.1641C88.3398 15.3698 87.9785 14.3118 87.959 12.9902V12.5898C87.959 11.5417 88.1543 10.6107 88.5449 9.79688C88.9421 8.97656 89.5085 8.34505 90.2441 7.90234C90.9863 7.45964 91.8522 7.23828 92.8418 7.23828ZM107.715 3.78125L111.367 14.0938L115 3.78125H118.848V18H115.908V14.1133L116.201 7.4043L112.363 18H110.352L106.523 7.41406L106.816 14.1133V18H103.887V3.78125H107.715ZM125.098 7.43359C124.264 9.19141 123.825 10.8711 123.779 12.4727C123.779 13.599 123.913 14.4583 124.18 15.0508C124.453 15.6367 124.831 15.9297 125.312 15.9297C126.354 15.9297 126.875 14.9889 126.875 13.1074V9.75781H129.854V13.1074C129.854 14.9889 130.374 15.9297 131.416 15.9297C131.911 15.9297 132.288 15.627 132.549 15.0215C132.816 14.4095 132.949 13.5599 132.949 12.4727C132.904 10.8581 132.461 9.17839 131.621 7.43359H134.316C135.286 8.91797 135.771 10.5977 135.771 12.4727C135.771 14.3737 135.41 15.8027 134.688 16.7598C133.965 17.7168 132.907 18.1953 131.514 18.1953C130.798 18.1953 130.169 18.0195 129.629 17.668C129.095 17.3164 128.672 16.8021 128.359 16.125C128.04 16.8021 127.614 17.3164 127.08 17.668C126.546 18.0195 125.924 18.1953 125.215 18.1953C123.815 18.1953 122.754 17.7168 122.031 16.7598C121.309 15.7962 120.947 14.3672 120.947 12.4727C120.947 10.5977 121.432 8.91797 122.402 7.43359H125.098ZM142.48 7.23828C143.939 7.23828 145.085 7.73633 145.918 8.73242C146.751 9.72852 147.168 11.1087 147.168 12.873V13C147.168 14.6146 146.797 15.8841 146.055 16.8086C145.319 17.7331 144.326 18.1953 143.076 18.1953C142.015 18.1953 141.152 17.8014 140.488 17.0137V22.0625H137.666V12.4531C137.666 10.8646 138.105 9.59831 138.984 8.6543C139.863 7.71029 141.029 7.23828 142.48 7.23828ZM140.488 15.0312C140.853 15.6302 141.468 15.9297 142.334 15.9297C142.985 15.9297 143.483 15.6855 143.828 15.1973C144.173 14.7025 144.346 13.9017 144.346 12.7949C144.346 11.7402 144.17 10.9329 143.818 10.373C143.473 9.80664 142.982 9.52344 142.344 9.52344C141.764 9.52344 141.309 9.79362 140.977 10.334C140.651 10.8678 140.488 11.6491 140.488 12.6777V15.0312ZM157.92 7.43359V14.7285C157.939 15.4967 158.171 15.8809 158.613 15.8809C158.704 15.8809 158.776 15.8678 158.828 15.8418L159.062 17.9609C158.737 18.1237 158.33 18.2051 157.842 18.2051C156.663 18.2051 155.853 17.6615 155.41 16.5742C154.772 17.6549 153.864 18.1953 152.686 18.1953C151.481 18.1953 150.511 17.7689 149.775 16.916C149.04 16.0566 148.639 14.8815 148.574 13.3906L148.564 12.7949C148.564 11.0827 148.936 9.72852 149.678 8.73242C150.42 7.73633 151.429 7.23828 152.705 7.23828C153.779 7.23828 154.632 7.72656 155.264 8.70312L155.469 7.43359H157.92ZM151.396 13C151.396 14.9531 152.064 15.9297 153.398 15.9297C154.173 15.9297 154.74 15.6172 155.098 14.9922V10.5488C154.74 9.86523 154.18 9.52344 153.418 9.52344C152.773 9.52344 152.275 9.80339 151.924 10.3633C151.572 10.9232 151.396 11.8021 151.396 13ZM163.301 7.43359L163.291 14.6992C163.291 15.0898 163.366 15.3698 163.516 15.5391C163.672 15.7083 163.962 15.793 164.385 15.793C164.671 15.793 164.945 15.7669 165.205 15.7148V17.8535C164.697 18.0228 164.128 18.1074 163.496 18.1074C161.51 18.1074 160.501 17.1016 160.469 15.0898V7.43359H163.301ZM161.689 1.10547H164.219L162.715 4.34766H161.27L161.689 1.10547ZM157.734 4.875C157.734 4.53646 157.861 4.24674 158.115 4.00586C158.363 3.75846 158.688 3.63477 159.092 3.63477C159.495 3.63477 159.821 3.75846 160.068 4.00586C160.316 4.24674 160.439 4.53646 160.439 4.875C160.439 5.21354 160.316 5.50326 160.068 5.74414C159.821 5.98503 159.495 6.10547 159.092 6.10547C158.695 6.10547 158.369 5.98828 158.115 5.75391C157.861 5.51302 157.734 5.22005 157.734 4.875ZM163.76 4.875C163.76 4.52995 163.887 4.23698 164.141 3.99609C164.401 3.75521 164.723 3.63477 165.107 3.63477C165.485 3.63477 165.804 3.75521 166.064 3.99609C166.331 4.23047 166.465 4.52344 166.465 4.875C166.465 5.21354 166.338 5.50651 166.084 5.75391C165.837 5.99479 165.511 6.11523 165.107 6.11523C164.704 6.11523 164.378 5.99479 164.131 5.75391C163.883 5.50651 163.76 5.21354 163.76 4.875ZM175.83 9.69922H172.354V14.7969C172.354 15.181 172.422 15.4609 172.559 15.6367C172.695 15.8125 172.923 15.9004 173.242 15.9004C173.548 15.9004 173.867 15.8451 174.199 15.7344L174.492 17.8828C173.939 18.0911 173.33 18.1953 172.666 18.1953C171.689 18.1953 170.924 17.9219 170.371 17.375C169.818 16.8216 169.538 15.9655 169.531 14.8066V9.69922H166.289V7.43359H175.83V9.69922ZM179.951 7.43359L180.059 8.73242C180.833 7.73633 181.846 7.23828 183.096 7.23828C185.309 7.23828 186.442 8.50456 186.494 11.0371V22.0527H183.662V11.1641C183.643 10.0703 183.109 9.52344 182.061 9.52344C181.234 9.52344 180.596 9.82617 180.146 10.4316V18H177.324V7.43359H179.951ZM193.057 7.23828C194.378 7.23828 195.43 7.61263 196.211 8.36133C196.992 9.11003 197.383 10.1126 197.383 11.3691H194.727C194.727 10.8092 194.577 10.3633 194.277 10.0312C193.984 9.69271 193.577 9.52344 193.057 9.52344C192.406 9.52344 191.901 9.77734 191.543 10.2852C191.191 10.793 191.012 11.5514 191.006 12.5605V12.8633C191.006 13.6706 191.191 14.2956 191.562 14.7383C191.934 15.1745 192.565 15.5195 193.457 15.7734C194.355 16.0208 194.984 16.2454 195.342 16.4473C195.7 16.6426 195.97 16.89 196.152 17.1895C196.341 17.4889 196.442 17.8698 196.455 18.332C196.455 18.8464 196.23 19.4258 195.781 20.0703C195.339 20.7148 194.824 21.2422 194.238 21.6523L192.764 20.5391C193.376 19.901 193.675 19.3542 193.662 18.8984C193.662 18.4297 193.317 18.1172 192.627 17.9609C191.084 17.5573 189.961 16.9583 189.258 16.1641C188.555 15.3698 188.193 14.3118 188.174 12.9902V12.5898C188.174 11.5417 188.369 10.6107 188.76 9.79688C189.157 8.97656 189.723 8.34505 190.459 7.90234C191.201 7.45964 192.067 7.23828 193.057 7.23828ZM199.668 21.5645L198.193 20.793L198.545 20.1582C198.981 19.3639 199.206 18.5729 199.219 17.7852V15.5977H201.602L201.592 17.5508C201.585 18.2734 201.403 19.0026 201.045 19.7383C200.687 20.474 200.228 21.0827 199.668 21.5645ZM212.754 14.5527L214.717 7.43359H217.666L214.102 18H211.406L207.842 7.43359H210.791L212.754 14.5527ZM218.76 15.0117C218.76 13.8138 219.424 12.9967 220.752 12.5605C220.186 12.3262 219.743 12.0137 219.424 11.623C219.105 11.2259 218.945 10.793 218.945 10.3242C218.945 9.36719 219.365 8.61523 220.205 8.06836C221.051 7.52148 222.204 7.24805 223.662 7.24805C224.971 7.24805 226.042 7.55078 226.875 8.15625C227.708 8.76172 228.125 9.53646 228.125 10.4805H225.303C225.303 10.1484 225.137 9.88151 224.805 9.67969C224.479 9.47786 224.049 9.37695 223.516 9.37695C222.988 9.37695 222.565 9.48438 222.246 9.69922C221.927 9.91406 221.768 10.1973 221.768 10.5488C221.768 10.8874 221.914 11.1576 222.207 11.3594C222.5 11.5612 222.939 11.6621 223.525 11.6621H225.352V13.5469H223.486C222.21 13.5534 221.572 13.9733 221.572 14.8066C221.572 15.1647 221.748 15.4674 222.1 15.7148C222.458 15.9557 222.926 16.0762 223.506 16.0762C224.105 16.0762 224.58 15.9622 224.932 15.7344C225.29 15.5065 225.469 15.2201 225.469 14.875H228.291C228.291 15.8776 227.858 16.6816 226.992 17.2871C226.126 17.8926 225.016 18.1953 223.662 18.1953C222.21 18.1953 221.029 17.9056 220.117 17.3262C219.212 16.7402 218.76 15.9688 218.76 15.0117ZM223.213 2.36523H225.771L224.18 5.73438H222.5L223.213 2.36523ZM229.609 12.6191C229.609 11.571 229.811 10.6367 230.215 9.81641C230.618 8.99609 231.198 8.36133 231.953 7.91211C232.715 7.46289 233.597 7.23828 234.6 7.23828C236.025 7.23828 237.188 7.67448 238.086 8.54688C238.991 9.41927 239.495 10.6042 239.6 12.1016L239.619 12.8242C239.619 14.4453 239.167 15.7474 238.262 16.7305C237.357 17.707 236.143 18.1953 234.619 18.1953C233.096 18.1953 231.878 17.707 230.967 16.7305C230.062 15.7539 229.609 14.4258 229.609 12.7461V12.6191ZM232.432 12.8242C232.432 13.8268 232.62 14.5951 232.998 15.1289C233.376 15.6562 233.916 15.9199 234.619 15.9199C235.303 15.9199 235.837 15.6595 236.221 15.1387C236.605 14.6113 236.797 13.7715 236.797 12.6191C236.797 11.6361 236.605 10.8743 236.221 10.334C235.837 9.79362 235.296 9.52344 234.6 9.52344C233.91 9.52344 233.376 9.79362 232.998 10.334C232.62 10.8678 232.432 11.6979 232.432 12.8242ZM245.771 7.23828C247.093 7.23828 248.145 7.61263 248.926 8.36133C249.707 9.11003 250.098 10.1126 250.098 11.3691H247.441C247.441 10.8092 247.292 10.3633 246.992 10.0312C246.699 9.69271 246.292 9.52344 245.771 9.52344C245.12 9.52344 244.616 9.77734 244.258 10.2852C243.906 10.793 243.727 11.5514 243.721 12.5605V12.8633C243.721 13.6706 243.906 14.2956 244.277 14.7383C244.648 15.1745 245.28 15.5195 246.172 15.7734C247.07 16.0208 247.699 16.2454 248.057 16.4473C248.415 16.6426 248.685 16.89 248.867 17.1895C249.056 17.4889 249.157 17.8698 249.17 18.332C249.17 18.8464 248.945 19.4258 248.496 20.0703C248.053 20.7148 247.539 21.2422 246.953 21.6523L245.479 20.5391C246.09 19.901 246.39 19.3542 246.377 18.8984C246.377 18.4297 246.032 18.1172 245.342 17.9609C243.799 17.5573 242.676 16.9583 241.973 16.1641C241.27 15.3698 240.908 14.3118 240.889 12.9902V12.5898C240.889 11.5417 241.084 10.6107 241.475 9.79688C241.872 8.97656 242.438 8.34505 243.174 7.90234C243.916 7.45964 244.782 7.23828 245.771 7.23828ZM263.643 10.9004L260.225 15.6465H266.338V18H256.25V16.5254L260.537 10.8223L256.25 5.25586V3.78125H266.104V6.1543H260.273L263.643 10.7539V10.9004ZM270.83 7.43359V13.8984C270.83 15.2526 271.24 15.9297 272.061 15.9297C272.686 15.9297 273.203 15.5977 273.613 14.9336C274.03 14.263 274.238 13.4427 274.238 12.4727C274.212 10.9362 273.88 9.25651 273.242 7.43359H275.938C276.68 8.91797 277.051 10.5977 277.051 12.4727C277.051 14.2565 276.628 15.6595 275.781 16.6816C274.935 17.6973 273.727 18.2051 272.158 18.2051C270.804 18.2051 269.775 17.8438 269.072 17.1211C268.369 16.3919 268.011 15.3535 267.998 14.0059V7.43359H270.83ZM282.852 14.5527L284.814 7.43359H287.764L284.199 18H281.504L277.939 7.43359H280.889L282.852 14.5527ZM298.018 9.69922H294.541V14.7969C294.541 15.181 294.609 15.4609 294.746 15.6367C294.883 15.8125 295.111 15.9004 295.43 15.9004C295.736 15.9004 296.055 15.8451 296.387 15.7344L296.68 17.8828C296.126 18.0911 295.518 18.1953 294.854 18.1953C293.877 18.1953 293.112 17.9219 292.559 17.375C292.005 16.8216 291.725 15.9655 291.719 14.8066V9.69922H288.477V7.43359H298.018V9.69922ZM298.887 12.6191C298.887 11.571 299.089 10.6367 299.492 9.81641C299.896 8.99609 300.475 8.36133 301.23 7.91211C301.992 7.46289 302.874 7.23828 303.877 7.23828C305.303 7.23828 306.465 7.67448 307.363 8.54688C308.268 9.41927 308.773 10.6042 308.877 12.1016L308.896 12.8242C308.896 14.4453 308.444 15.7474 307.539 16.7305C306.634 17.707 305.42 18.1953 303.896 18.1953C302.373 18.1953 301.156 17.707 300.244 16.7305C299.339 15.7539 298.887 14.4258 298.887 12.7461V12.6191ZM301.709 12.8242C301.709 13.8268 301.898 14.5951 302.275 15.1289C302.653 15.6562 303.193 15.9199 303.896 15.9199C304.58 15.9199 305.114 15.6595 305.498 15.1387C305.882 14.6113 306.074 13.7715 306.074 12.6191C306.074 11.6361 305.882 10.8743 305.498 10.334C305.114 9.79362 304.574 9.52344 303.877 9.52344C303.187 9.52344 302.653 9.79362 302.275 10.334C301.898 10.8678 301.709 11.6979 301.709 12.8242ZM314.434 14.5527L316.396 7.43359H319.346L315.781 18H313.086L309.521 7.43359H312.471L314.434 14.5527ZM323.691 7.43359L323.682 14.6992C323.682 15.0898 323.757 15.3698 323.906 15.5391C324.062 15.7083 324.352 15.793 324.775 15.793C325.062 15.793 325.335 15.7669 325.596 15.7148V17.8535C325.088 18.0228 324.518 18.1074 323.887 18.1074C321.901 18.1074 320.892 17.1016 320.859 15.0898V7.43359H323.691ZM337.324 9.71875H334.844C335.983 10.6432 336.553 11.8118 336.553 13.2246C336.553 14.709 336.113 15.9102 335.234 16.8281C334.355 17.7396 333.187 18.1953 331.729 18.1953C330.218 18.1953 329.007 17.7103 328.096 16.7402C327.191 15.7702 326.738 14.4388 326.738 12.7461V12.6191C326.738 11.0632 327.184 9.8099 328.076 8.85938C328.975 7.90885 330.199 7.43359 331.748 7.43359H337.324V9.71875ZM329.561 12.8242C329.561 13.8398 329.746 14.6113 330.117 15.1387C330.495 15.666 331.032 15.9297 331.729 15.9297C332.367 15.9297 332.858 15.666 333.203 15.1387C333.555 14.6113 333.73 13.7715 333.73 12.6191C333.73 11.6947 333.555 10.9818 333.203 10.4805C332.852 9.97266 332.354 9.71875 331.709 9.71875C331.032 9.71875 330.505 9.96615 330.127 10.4609C329.749 10.9557 329.561 11.7435 329.561 12.8242ZM347.822 9.69922H344.346V14.7969C344.346 15.181 344.414 15.4609 344.551 15.6367C344.688 15.8125 344.915 15.9004 345.234 15.9004C345.54 15.9004 345.859 15.8451 346.191 15.7344L346.484 17.8828C345.931 18.0911 345.322 18.1953 344.658 18.1953C343.682 18.1953 342.917 17.9219 342.363 17.375C341.81 16.8216 341.53 15.9655 341.523 14.8066V9.69922H338.281V7.43359H347.822V9.69922ZM351.943 7.43359L352.051 8.73242C352.826 7.73633 353.838 7.23828 355.088 7.23828C357.301 7.23828 358.434 8.50456 358.486 11.0371V22.0527H355.654V11.1641C355.635 10.0703 355.101 9.52344 354.053 9.52344C353.226 9.52344 352.588 9.82617 352.139 10.4316V18H349.316V7.43359H351.943ZM353.574 2.36523H356.133L354.541 5.73438H352.861L353.574 2.36523ZM365.049 7.23828C366.37 7.23828 367.422 7.61263 368.203 8.36133C368.984 9.11003 369.375 10.1126 369.375 11.3691H366.719C366.719 10.8092 366.569 10.3633 366.27 10.0312C365.977 9.69271 365.57 9.52344 365.049 9.52344C364.398 9.52344 363.893 9.77734 363.535 10.2852C363.184 10.793 363.005 11.5514 362.998 12.5605V12.8633C362.998 13.6706 363.184 14.2956 363.555 14.7383C363.926 15.1745 364.557 15.5195 365.449 15.7734C366.348 16.0208 366.976 16.2454 367.334 16.4473C367.692 16.6426 367.962 16.89 368.145 17.1895C368.333 17.4889 368.434 17.8698 368.447 18.332C368.447 18.8464 368.223 19.4258 367.773 20.0703C367.331 20.7148 366.816 21.2422 366.23 21.6523L364.756 20.5391C365.368 19.901 365.667 19.3542 365.654 18.8984C365.654 18.4297 365.309 18.1172 364.619 17.9609C363.076 17.5573 361.953 16.9583 361.25 16.1641C360.547 15.3698 360.186 14.3118 360.166 12.9902V12.5898C360.166 11.5417 360.361 10.6107 360.752 9.79688C361.149 8.97656 361.715 8.34505 362.451 7.90234C363.193 7.45964 364.059 7.23828 365.049 7.23828ZM5.72266 35.2969L4.19922 36.9375V41H1.26953V26.7812H4.19922V33.2266L5.48828 31.459L9.11133 26.7812H12.7148L7.66602 33.0996L12.8613 41H9.375L5.72266 35.2969ZM13.623 38.0117C13.623 36.8138 14.2871 35.9967 15.6152 35.5605C15.0488 35.3262 14.6061 35.0137 14.2871 34.623C13.9681 34.2259 13.8086 33.793 13.8086 33.3242C13.8086 32.3672 14.2285 31.6152 15.0684 31.0684C15.9147 30.5215 17.0671 30.248 18.5254 30.248C19.834 30.248 20.9049 30.5508 21.7383 31.1562C22.5716 31.7617 22.9883 32.5365 22.9883 33.4805H20.166C20.166 33.1484 20 32.8815 19.668 32.6797C19.3424 32.4779 18.9128 32.377 18.3789 32.377C17.8516 32.377 17.4284 32.4844 17.1094 32.6992C16.7904 32.9141 16.6309 33.1973 16.6309 33.5488C16.6309 33.8874 16.7773 34.1576 17.0703 34.3594C17.3633 34.5612 17.8027 34.6621 18.3887 34.6621H20.2148V36.5469H18.3496C17.0736 36.5534 16.4355 36.9733 16.4355 37.8066C16.4355 38.1647 16.6113 38.4674 16.9629 38.7148C17.321 38.9557 17.7897 39.0762 18.3691 39.0762C18.9681 39.0762 19.4434 38.9622 19.7949 38.7344C20.153 38.5065 20.332 38.2201 20.332 37.875H23.1543C23.1543 38.8776 22.7214 39.6816 21.8555 40.2871C20.9896 40.8926 19.8796 41.1953 18.5254 41.1953C17.0736 41.1953 15.8919 40.9056 14.9805 40.3262C14.0755 39.7402 13.623 38.9688 13.623 38.0117ZM29.7461 30.2383C31.2044 30.2383 32.3503 30.7363 33.1836 31.7324C34.0169 32.7285 34.4336 34.1087 34.4336 35.873V36C34.4336 37.6146 34.0625 38.8841 33.3203 39.8086C32.5846 40.7331 31.5918 41.1953 30.3418 41.1953C29.2806 41.1953 28.418 40.8014 27.7539 40.0137V45.0625H24.9316V35.4531C24.9316 33.8646 25.3711 32.5983 26.25 31.6543C27.1289 30.7103 28.2943 30.2383 29.7461 30.2383ZM27.7539 38.0312C28.1185 38.6302 28.7337 38.9297 29.5996 38.9297C30.2507 38.9297 30.7487 38.6855 31.0938 38.1973C31.4388 37.7025 31.6113 36.9017 31.6113 35.7949C31.6113 34.7402 31.4355 33.9329 31.084 33.373C30.7389 32.8066 30.2474 32.5234 29.6094 32.5234C29.0299 32.5234 28.5742 32.7936 28.2422 33.334C27.9167 33.8678 27.7539 34.6491 27.7539 35.6777V38.0312ZM40.3613 37.1035H39.209V41H36.3867V30.4336H39.209V34.4082H40.0586L42.8125 30.4336H46.377L42.666 35.5215L46.543 41H42.9199L40.3613 37.1035ZM50.8496 30.4336V36.8984C50.8496 38.2526 51.2598 38.9297 52.0801 38.9297C52.7051 38.9297 53.2227 38.5977 53.6328 37.9336C54.0495 37.263 54.2578 36.4427 54.2578 35.4727C54.2318 33.9362 53.8997 32.2565 53.2617 30.4336H55.957C56.6992 31.918 57.0703 33.5977 57.0703 35.4727C57.0703 37.2565 56.6471 38.6595 55.8008 39.6816C54.9544 40.6973 53.7467 41.2051 52.1777 41.2051C50.8236 41.2051 49.7949 40.8438 49.0918 40.1211C48.3887 39.3919 48.0306 38.3535 48.0176 37.0059V30.4336H50.8496ZM52.0996 25.4141H54.6582L53.0664 28.7832H51.3867L52.0996 25.4141ZM63.75 30.2383C65.2083 30.2383 66.3542 30.7363 67.1875 31.7324C68.0208 32.7285 68.4375 34.1087 68.4375 35.873V36C68.4375 37.6146 68.0664 38.8841 67.3242 39.8086C66.5885 40.7331 65.5957 41.1953 64.3457 41.1953C63.2845 41.1953 62.4219 40.8014 61.7578 40.0137V45.0625H58.9355V35.4531C58.9355 33.8646 59.375 32.5983 60.2539 31.6543C61.1328 30.7103 62.2982 30.2383 63.75 30.2383ZM61.7578 38.0312C62.1224 38.6302 62.7376 38.9297 63.6035 38.9297C64.2546 38.9297 64.7526 38.6855 65.0977 38.1973C65.4427 37.7025 65.6152 36.9017 65.6152 35.7949C65.6152 34.7402 65.4395 33.9329 65.0879 33.373C64.7428 32.8066 64.2513 32.5234 63.6133 32.5234C63.0339 32.5234 62.5781 32.7936 62.2461 33.334C61.9206 33.8678 61.7578 34.6491 61.7578 35.6777V38.0312ZM79.1895 30.4336V37.7285C79.209 38.4967 79.4401 38.8809 79.8828 38.8809C79.974 38.8809 80.0456 38.8678 80.0977 38.8418L80.332 40.9609C80.0065 41.1237 79.5996 41.2051 79.1113 41.2051C77.9329 41.2051 77.1224 40.6615 76.6797 39.5742C76.0417 40.6549 75.1335 41.1953 73.9551 41.1953C72.7507 41.1953 71.7806 40.7689 71.0449 39.916C70.3092 39.0566 69.9089 37.8815 69.8438 36.3906L69.834 35.7949C69.834 34.0827 70.2051 32.7285 70.9473 31.7324C71.6895 30.7363 72.6986 30.2383 73.9746 30.2383C75.0488 30.2383 75.9017 30.7266 76.5332 31.7031L76.7383 30.4336H79.1895ZM72.666 36C72.666 37.9531 73.3333 38.9297 74.668 38.9297C75.4427 38.9297 76.0091 38.6172 76.3672 37.9922V33.5488C76.0091 32.8652 75.4492 32.5234 74.6875 32.5234C74.043 32.5234 73.5449 32.8034 73.1934 33.3633C72.8418 33.9232 72.666 34.8021 72.666 36ZM85.8887 30.2383C87.2103 30.2383 88.2617 30.6126 89.043 31.3613C89.8242 32.11 90.2148 33.1126 90.2148 34.3691H87.5586C87.5586 33.8092 87.4089 33.3633 87.1094 33.0312C86.8164 32.6927 86.4095 32.5234 85.8887 32.5234C85.2376 32.5234 84.7331 32.7773 84.375 33.2852C84.0234 33.793 83.8444 34.5514 83.8379 35.5605V35.8633C83.8379 36.6706 84.0234 37.2956 84.3945 37.7383C84.7656 38.1745 85.3971 38.5195 86.2891 38.7734C87.1875 39.0208 87.8158 39.2454 88.1738 39.4473C88.5319 39.6426 88.8021 39.89 88.9844 40.1895C89.1732 40.4889 89.2741 40.8698 89.2871 41.332C89.2871 41.8464 89.0625 42.4258 88.6133 43.0703C88.1706 43.7148 87.6562 44.2422 87.0703 44.6523L85.5957 43.5391C86.2077 42.901 86.5072 42.3542 86.4941 41.8984C86.4941 41.4297 86.1491 41.1172 85.459 40.9609C83.916 40.5573 82.793 39.9583 82.0898 39.1641C81.3867 38.3698 81.0254 37.3118 81.0059 35.9902V35.5898C81.0059 34.5417 81.2012 33.6107 81.5918 32.7969C81.9889 31.9766 82.5553 31.3451 83.291 30.9023C84.0332 30.4596 84.8991 30.2383 85.8887 30.2383ZM105.635 32.6992H102.158V37.7969C102.158 38.181 102.227 38.4609 102.363 38.6367C102.5 38.8125 102.728 38.9004 103.047 38.9004C103.353 38.9004 103.672 38.8451 104.004 38.7344L104.297 40.8828C103.743 41.0911 103.135 41.1953 102.471 41.1953C101.494 41.1953 100.729 40.9219 100.176 40.375C99.6224 39.8216 99.3424 38.9655 99.3359 37.8066V32.6992H96.0938V30.4336H105.635V32.6992ZM106.504 35.6191C106.504 34.571 106.706 33.6367 107.109 32.8164C107.513 31.9961 108.092 31.3613 108.848 30.9121C109.609 30.4629 110.492 30.2383 111.494 30.2383C112.92 30.2383 114.082 30.6745 114.98 31.5469C115.885 32.4193 116.39 33.6042 116.494 35.1016L116.514 35.8242C116.514 37.4453 116.061 38.7474 115.156 39.7305C114.251 40.707 113.037 41.1953 111.514 41.1953C109.99 41.1953 108.773 40.707 107.861 39.7305C106.956 38.7539 106.504 37.4258 106.504 35.7461V35.6191ZM109.326 35.8242C109.326 36.8268 109.515 37.5951 109.893 38.1289C110.27 38.6562 110.811 38.9199 111.514 38.9199C112.197 38.9199 112.731 38.6595 113.115 38.1387C113.499 37.6113 113.691 36.7715 113.691 35.6191C113.691 34.6361 113.499 33.8743 113.115 33.334C112.731 32.7936 112.191 32.5234 111.494 32.5234C110.804 32.5234 110.27 32.7936 109.893 33.334C109.515 33.8678 109.326 34.6979 109.326 35.8242ZM121.104 30.4336V36.8984C121.104 38.2526 121.514 38.9297 122.334 38.9297C122.959 38.9297 123.477 38.5977 123.887 37.9336C124.303 37.263 124.512 36.4427 124.512 35.4727C124.486 33.9362 124.154 32.2565 123.516 30.4336H126.211C126.953 31.918 127.324 33.5977 127.324 35.4727C127.324 37.2565 126.901 38.6595 126.055 39.6816C125.208 40.6973 124.001 41.2051 122.432 41.2051C121.077 41.2051 120.049 40.8438 119.346 40.1211C118.643 39.3919 118.285 38.3535 118.271 37.0059V30.4336H121.104ZM141.162 33.9004L137.744 38.6465H143.857V41H133.77V39.5254L138.057 33.8223L133.77 28.2559V26.7812H143.623V29.1543H137.793L141.162 33.7539V33.9004ZM150.586 33.1875L153.545 26.7812H156.748L152.08 35.8438V41H149.102V35.8438L144.434 26.7812H147.646L150.586 33.1875ZM160.977 35.9902V41H158.047V26.7812H163.594C164.661 26.7812 165.599 26.9766 166.406 27.3672C167.22 27.7578 167.845 28.3145 168.281 29.0371C168.717 29.7533 168.936 30.5703 168.936 31.4883C168.936 32.8815 168.457 33.9818 167.5 34.7891C166.549 35.5898 165.231 35.9902 163.545 35.9902H160.977ZM160.977 33.6172H163.594C164.368 33.6172 164.958 33.4349 165.361 33.0703C165.771 32.7057 165.977 32.1849 165.977 31.5078C165.977 30.8112 165.771 30.248 165.361 29.8184C164.951 29.3887 164.385 29.1673 163.662 29.1543H160.977V33.6172ZM174.072 41H171.143V26.7812H174.072V41ZM179.902 38.6465H187.07V41H176.24V39.2812L183.271 29.1543H176.25V26.7812H186.914V28.4609L179.902 38.6465ZM197.09 38.0703H191.953L190.977 41H187.861L193.154 26.7812H195.869L201.191 41H198.076L197.09 38.0703ZM192.744 35.6973H196.299L194.512 30.375L192.744 35.6973Z" fill="black"/>
<path d="M33.9805 71H32.5273V61.3672L29.6133 62.4375V61.125L33.7539 59.5703H33.9805V71ZM42.9648 71H41.5117V61.3672L38.5977 62.4375V61.125L42.7383 59.5703H42.9648V71ZM57.8164 65.9766H53.043V71H51.543V59.625H58.5898V60.8594H53.043V64.75H57.8164V65.9766ZM63.4961 71.1562C62.3503 71.1562 61.418 70.7812 60.6992 70.0312C59.9805 69.276 59.6211 68.2682 59.6211 67.0078V66.7422C59.6211 65.9036 59.7799 65.1562 60.0977 64.5C60.4206 63.8385 60.8685 63.3229 61.4414 62.9531C62.0195 62.5781 62.6445 62.3906 63.3164 62.3906C64.4154 62.3906 65.2695 62.7526 65.8789 63.4766C66.4883 64.2005 66.793 65.237 66.793 66.5859V67.1875H61.0664C61.0872 68.0208 61.3294 68.6953 61.793 69.2109C62.2617 69.7214 62.8555 69.9766 63.5742 69.9766C64.0846 69.9766 64.5169 69.8724 64.8711 69.6641C65.2253 69.4557 65.5352 69.1797 65.8008 68.8359L66.6836 69.5234C65.9753 70.612 64.9128 71.1562 63.4961 71.1562ZM63.3164 63.5781C62.7331 63.5781 62.2435 63.7917 61.8477 64.2188C61.4518 64.6406 61.207 65.2344 61.1133 66H65.3477V65.8906C65.306 65.1562 65.1081 64.5885 64.7539 64.1875C64.3997 63.7812 63.9206 63.5781 63.3164 63.5781ZM75.6289 66.8672C75.6289 68.1589 75.332 69.1979 74.7383 69.9844C74.1445 70.7656 73.3477 71.1562 72.3477 71.1562C71.2799 71.1562 70.4544 70.7786 69.8711 70.0234L69.8008 71H68.4727V59H69.918V63.4766C70.5013 62.7526 71.306 62.3906 72.332 62.3906C73.3581 62.3906 74.1628 62.7786 74.7461 63.5547C75.3346 64.3307 75.6289 65.3932 75.6289 66.7422V66.8672ZM74.1836 66.7031C74.1836 65.7188 73.9935 64.9583 73.6133 64.4219C73.2331 63.8854 72.6862 63.6172 71.9727 63.6172C71.0195 63.6172 70.3346 64.0599 69.918 64.9453V68.6016C70.3607 69.487 71.0508 69.9297 71.9883 69.9297C72.681 69.9297 73.2201 69.6615 73.6055 69.125C73.9909 68.5885 74.1836 67.7812 74.1836 66.7031ZM88.7305 71H81.2773V69.9609L85.2148 65.5859C85.7982 64.9245 86.1992 64.388 86.418 63.9766C86.6419 63.5599 86.7539 63.1302 86.7539 62.6875C86.7539 62.0938 86.5742 61.6068 86.2148 61.2266C85.8555 60.8464 85.3763 60.6562 84.7773 60.6562C84.0586 60.6562 83.4987 60.862 83.0977 61.2734C82.7018 61.6797 82.5039 62.2474 82.5039 62.9766H81.0586C81.0586 61.9297 81.3945 61.0833 82.0664 60.4375C82.7435 59.7917 83.6471 59.4688 84.7773 59.4688C85.8346 59.4688 86.6706 59.7474 87.2852 60.3047C87.8997 60.8568 88.207 61.5938 88.207 62.5156C88.207 63.6354 87.4935 64.9688 86.0664 66.5156L83.0195 69.8203H88.7305V71ZM97.3945 66.1484C97.3945 67.8411 97.1055 69.099 96.5273 69.9219C95.9492 70.7448 95.0456 71.1562 93.8164 71.1562C92.6029 71.1562 91.7044 70.7552 91.1211 69.9531C90.5378 69.1458 90.2357 67.9427 90.2148 66.3438V64.4141C90.2148 62.7422 90.5039 61.5 91.082 60.6875C91.6602 59.875 92.5664 59.4688 93.8008 59.4688C95.0247 59.4688 95.9258 59.862 96.5039 60.6484C97.082 61.4297 97.3789 62.638 97.3945 64.2734V66.1484ZM95.9492 64.1719C95.9492 62.9479 95.7773 62.0573 95.4336 61.5C95.0898 60.9375 94.5456 60.6562 93.8008 60.6562C93.0612 60.6562 92.5221 60.9349 92.1836 61.4922C91.8451 62.0495 91.6706 62.9062 91.6602 64.0625V66.375C91.6602 67.6042 91.8372 68.513 92.1914 69.1016C92.5508 69.6849 93.0924 69.9766 93.8164 69.9766C94.5299 69.9766 95.0586 69.7005 95.4023 69.1484C95.7513 68.5964 95.9336 67.7266 95.9492 66.5391V64.1719ZM106.699 71H99.2461V69.9609L103.184 65.5859C103.767 64.9245 104.168 64.388 104.387 63.9766C104.611 63.5599 104.723 63.1302 104.723 62.6875C104.723 62.0938 104.543 61.6068 104.184 61.2266C103.824 60.8464 103.345 60.6562 102.746 60.6562C102.027 60.6562 101.467 60.862 101.066 61.2734C100.671 61.6797 100.473 62.2474 100.473 62.9766H99.0273C99.0273 61.9297 99.3633 61.0833 100.035 60.4375C100.712 59.7917 101.616 59.4688 102.746 59.4688C103.803 59.4688 104.639 59.7474 105.254 60.3047C105.868 60.8568 106.176 61.5938 106.176 62.5156C106.176 63.6354 105.462 64.9688 104.035 66.5156L100.988 69.8203H106.699V71ZM112.98 71H111.527V61.3672L108.613 62.4375V61.125L112.754 59.5703H112.98V71Z" fill="black"/>
<path d="M0.496072 62.5H18.024C18.2968 62.5 18.52 62.7109 18.52 62.9688V73.125C18.52 74.1602 17.6312 75 16.5357 75H1.98429C0.888796 75 0 74.1602 0 73.125V62.9688C0 62.7109 0.223232 62.5 0.496072 62.5ZM18.52 60.7812V59.375C18.52 58.3398 17.6312 57.5 16.5357 57.5H14.5514V55.4688C14.5514 55.2109 14.3282 55 14.0554 55H12.4018C12.129 55 11.9057 55.2109 11.9057 55.4688V57.5H6.6143V55.4688C6.6143 55.2109 6.39106 55 6.11822 55H4.46465C4.19181 55 3.96858 55.2109 3.96858 55.4688V57.5H1.98429C0.888796 57.5 0 58.3398 0 59.375V60.7812C0 61.0391 0.223232 61.25 0.496072 61.25H18.024C18.2968 61.25 18.52 61.0391 18.52 60.7812Z" fill="black"/>
</svg>
