<svg width="203" height="35" viewBox="0 0 203 35" fill="none" xmlns="http://www.w3.org/2000/svg">
<path opacity="0.8" d="M20.7176 9.21743L22.7763 3.86434H8.36901L0 28.1518H14.1319L15.9152 23.2117H9.32949L10.8407 18.6846H16.6035L18.5245 13.4692H12.4863L13.8598 9.07976L20.7176 9.21743Z" fill="black"/>
<path opacity="0.8" d="M112.924 9.21743L114.983 3.86434H100.576L92.2065 28.1518H106.338L108.122 23.2117H101.536L103.047 18.6846H108.81L110.731 13.4692H104.693L106.066 9.07976L112.924 9.21743Z" fill="black"/>
<path opacity="0.8" d="M40.8877 28.1518H48.4819L51.7283 18.5469H56.8061L53.6045 28.1518H60.9234L69.7022 3.86434H62.0183L59.0024 13.4692H53.6493L56.9438 3.86434H49.1222L40.8877 28.1518Z" fill="black"/>
<path opacity="0.8" d="M172.474 28.1518H180.068L183.315 18.5469H188.393L185.191 28.1518H192.51L201.289 3.86434H193.605L190.589 13.4692H185.236L188.53 3.86434H180.709L172.474 28.1518Z" fill="black"/>
<path opacity="0.8" d="M63.1519 28.1518L71.8987 3.86434H80.3381V16.8661H80.8536L89.9077 3.86434H98.757L90.0102 28.1518H82.7041L86.7189 17.484H85.8192L78.8974 28.1518H74.5752L74.6776 17.071H74.095L70.253 28.1518H63.1519Z" fill="black"/>
<path opacity="0.8" d="M134.372 6.84184C133.831 5.53238 132.636 3.9828 130.011 3.86434H117.592L108.88 28.1518H115.946L119.513 18.4605H125.891C128.128 18.4832 130.29 17.6506 131.935 16.1329C133.334 14.8138 134.57 12.768 134.781 9.62084C134.858 8.67541 134.717 7.72504 134.372 6.84184ZM128.289 11.0936C128.224 11.4862 128.11 11.8692 127.949 12.2333C127.748 12.7155 127.395 13.119 126.944 13.3827C126.589 13.5805 126.188 13.683 125.782 13.6805L121.159 13.7221L122.667 8.80442H126.259C126.549 8.80046 126.838 8.85921 127.104 8.97667C127.37 9.09413 127.607 9.26753 127.8 9.48508C127.993 9.70262 128.137 9.9592 128.222 10.2373C128.307 10.5154 128.33 10.8086 128.292 11.0968L128.289 11.0936Z" fill="black"/>
<path opacity="0.8" d="M132.342 23.0068L130.696 28.1518H140.119L141.332 24.2426V23.0068C141.332 23.0068 139.478 21.979 140.096 18.6174C140.096 18.6174 141.057 10.8663 146.41 9.36471C146.891 9.21675 147.397 9.16547 147.898 9.21383C148.399 9.26218 148.886 9.40921 149.33 9.64645C150.61 10.3732 151.865 12.1597 150.316 16.5587C149.191 19.667 147.16 22.3668 144.486 24.3098L143.458 28.1518H153.2L154.846 22.9427H151.689L151.894 22.2576C151.894 22.2576 160.442 17.7081 157.567 8.13849C157.182 6.8513 156.385 5.72637 155.297 4.93688C152.951 3.24323 148.171 1.30626 141.111 5.64764C140.602 5.96088 140.123 6.32102 139.68 6.72338C137.439 8.7628 131.269 15.3421 135.704 22.677L135.636 23.0196H132.342V23.0068Z" fill="black"/>
<path opacity="0.8" d="M170.005 28.1518H154.913L156.696 23.1444L163.487 16.3506L161.566 8.80443L163.487 3.86434H178.65L176.934 8.80443H168.978L168.36 9.69768L170.899 16.008L164.723 22.7987V23.487L171.584 23.5542L170.005 28.1518Z" fill="black"/>
<path opacity="0.8" d="M47.336 3.86434L38.6244 28.1518H32.314L28.4593 16.3186L28.1135 15.2557L28.1039 15.2237L28.0655 15.1148L27.4411 13.1938H21.8159L24.9727 3.86434H30.9405L35.0578 16.008H35.6757L39.9274 3.86434L43.9743 0.64032H45.0724L47.336 3.86434Z" fill="black"/>
<path opacity="0.8" d="M28.488 15.1148L28.4272 15.2557L27.7164 16.8725L27.2266 17.9963H19.9653L21.0347 15.1148H28.488Z" fill="black"/>
<path opacity="0.8" d="M26.4037 19.9877L25.3856 22.3889H18.3389L19.2289 19.9877H26.4037Z" fill="black"/>
<path opacity="0.8" d="M24.6622 24.1049L24.0539 25.5456H17.1704L17.7019 24.1049H24.6622Z" fill="black"/>
<path opacity="0.8" d="M23.3015 27.3289L22.8341 28.4271H16.1011L16.5077 27.3289H23.3015Z" fill="black"/>
<path opacity="0.8" d="M21.9472 30.5306L21.483 31.4494H14.9165L15.3231 30.5306H21.9472Z" fill="black"/>
<path opacity="0.8" d="M20.3239 34.3725L19.9653 35H13.5845L13.8982 34.3725H20.3239Z" fill="black"/>
<path opacity="0.8" d="M28.8146 13.3539L28.4592 16.3186L28.1135 15.2557L27.4731 16.8725L28.1039 15.2237L28.1455 15.1148L28.8146 13.3539Z" fill="black"/>
<path d="M21.9984 8.57711L24.057 3.22402H9.64977L1.28076 27.5114H15.4127L17.196 22.5714H10.6103L12.1214 18.0443H17.8843L19.8053 12.8289H13.767L15.1405 8.43944L21.9984 8.57711Z" fill="white"/>
<path d="M114.204 8.57711L116.263 3.22402H101.856L93.4868 27.5114H107.619L109.402 22.5714H102.816L104.327 18.0443H110.09L112.011 12.8289H105.973L107.347 8.43944L114.204 8.57711Z" fill="white"/>
<path d="M42.1685 27.5114H49.7627L53.0091 17.9066H58.0869L54.8852 27.5114H62.2041L70.983 3.22402H63.2991L60.2832 12.8289H54.9301L58.2245 3.22402H50.403L42.1685 27.5114Z" fill="white"/>
<path d="M173.754 27.5114H181.349L184.595 17.9066H189.673L186.471 27.5114H193.79L202.569 3.22402H194.885L191.869 12.8289H186.516L189.81 3.22402H181.989L173.754 27.5114Z" fill="white"/>
<path d="M64.4326 27.5114L73.1794 3.22402H81.6189V16.2258H82.1343L91.1885 3.22402H100.038L91.2909 27.5114H83.9849L87.9997 16.8437H87.1L80.1781 27.5114H75.856L75.9584 16.4307H75.3757L71.5338 27.5114H64.4326Z" fill="white"/>
<path d="M135.652 6.20152C135.111 4.89206 133.917 3.34248 131.292 3.22402H118.873L110.161 27.5114H117.227L120.794 17.8202H127.171C129.409 17.8428 131.571 17.0103 133.216 15.4926C134.615 14.1735 135.851 12.1277 136.062 8.98052C136.138 8.03509 135.998 7.08472 135.652 6.20152ZM129.569 10.4533C129.505 10.8459 129.391 11.2289 129.23 11.593C129.029 12.0752 128.676 12.4787 128.225 12.7424C127.869 12.9401 127.469 13.0427 127.062 13.0402L122.439 13.0818L123.947 8.1641H127.539C127.83 8.16014 128.118 8.21889 128.384 8.33635C128.65 8.45381 128.888 8.62721 129.081 8.84476C129.274 9.0623 129.418 9.31888 129.502 9.597C129.587 9.87513 129.611 10.1683 129.573 10.4565L129.569 10.4533Z" fill="white"/>
<path d="M133.623 22.3664L131.977 27.5114H141.399L142.613 23.6023V22.3664C142.613 22.3664 140.759 21.3387 141.377 17.977C141.377 17.977 142.337 10.2259 147.691 8.72438C148.172 8.57643 148.678 8.52515 149.179 8.5735C149.68 8.62186 150.166 8.76889 150.61 9.00612C151.891 9.73289 153.146 11.5194 151.597 15.9184C150.471 19.0267 148.441 21.7265 145.766 23.6695L144.739 27.5114H154.481L156.127 22.3024H152.97L153.175 21.6173C153.175 21.6173 161.723 17.0678 158.848 7.49817C158.463 6.21097 157.665 5.08605 156.578 4.29656C154.231 2.60291 149.451 0.665934 142.392 5.00732C141.882 5.32056 141.403 5.6807 140.961 6.08305C138.72 8.12248 132.55 14.7018 136.984 22.0367L136.917 22.3792H133.623V22.3664Z" fill="white"/>
<path d="M171.286 27.5114H156.194L157.977 22.5041L164.768 15.7103L162.847 8.16411L164.768 3.22402H179.931L178.215 8.16411H170.259L169.641 9.05736L172.179 15.3677L166.004 22.1583V22.8467L172.865 22.9139L171.286 27.5114Z" fill="white"/>
<path d="M48.6162 3.22402L39.9046 27.5114H33.5943L29.7395 15.6783L29.3938 14.6153L29.3842 14.5833L29.3457 14.4745L28.7214 12.5535H23.0962L26.253 3.22402H32.2208L36.3381 15.3677H36.956L41.2077 3.22402L45.2545 0H46.3527L48.6162 3.22402Z" fill="white"/>
<path d="M29.7688 14.4745L29.7079 14.6154L28.9972 16.2322L28.5073 17.3559H21.2461L22.3154 14.4745H29.7688Z" fill="white"/>
<path d="M27.6845 19.3473L26.6664 21.7485H19.6196L20.5097 19.3473H27.6845Z" fill="white"/>
<path d="M25.9429 23.4646L25.3346 24.9053H18.4512L18.9826 23.4646H25.9429Z" fill="white"/>
<path d="M24.5818 26.6886L24.1143 27.7868H17.3813L17.788 26.6886H24.5818Z" fill="white"/>
<path d="M23.228 29.8902L22.7638 30.8091H16.1973L16.6039 29.8902H23.228Z" fill="white"/>
<path d="M21.6041 33.7322L21.2456 34.3597H14.8647L15.1785 33.7322H21.6041Z" fill="white"/>
<path d="M30.0949 12.7136L29.7395 15.6783L29.3937 14.6154L28.7534 16.2322L29.3841 14.5833L29.4258 14.4745L30.0949 12.7136Z" fill="white"/>
</svg>
